<svg xmlns="http://www.w3.org/2000/svg" xmlns:xlink="http://www.w3.org/1999/xlink" xmlns:lucid="lucid" width="940" height="542"><g transform="translate(-700 -378.9999999734525)" lucid:page-tab-id="0_0"><path d="M500 0h1500v1000H500z" fill="#fff"/><path d="M1160 386a6 6 0 0 1 6-6h148a6 6 0 0 1 6 6v108a6 6 0 0 1-6 6h-148a6 6 0 0 1-6-6z" stroke="#282c33" stroke-width="2" fill="#fff"/><use xlink:href="#a" transform="matrix(1,0,0,1,1172,392) translate(45.808641975308646 53.77777777777778)"/><path d="M980 406a6 6 0 0 1 6-6h88a6 6 0 0 1 6 6v65.33a6 6 0 0 1-6 6h-88a6 6 0 0 1-6-6z" stroke="#282c33" stroke-width="2" fill="#fff"/><use xlink:href="#b" transform="matrix(1,0,0,1,992,412) translate(10.253086419753089 21.15277777777778)"/><use xlink:href="#c" transform="matrix(1,0,0,1,992,412) translate(12.104938271604937 47.81944444444444)"/><path d="M758.74 460h-57.48c-.66 0-1.26-.57-1.26-1.27v-3.84c0-13.65 8.94-25.08 22.14-28.3.36-.06.66-.03.96.14 4.44 2.4 9.36 2.4 13.8 0 .3-.17.6-.2.9-.13 13.26 3.2 22.2 14.65 22.2 28.3v3.83c0 .7-.6 1.27-1.26 1.27zm-56.16-2.57h54.84v-2.54c.06-12.28-7.92-22.58-19.74-25.65-2.52 1.23-4.86 1.8-7.68 1.8-2.82 0-5.16-.53-7.68-1.8-11.82 3.07-19.8 13.37-19.74 25.64z" stroke="#fff" stroke-opacity="0" fill="#232f3e"/><path d="M730 430.98c-2.75 0-5.1-.6-7.52-1.93-7.47-4.18-10.13-13.66-5.95-21.12 4.18-7.47 13.63-10.13 21.06-5.95 5.04 2.82 7.92 7.75 7.92 13.54 0 5.82-2.94 10.78-8.05 13.53-2.42 1.3-4.74 1.93-7.46 1.93zm0-28.38c-4.95-.12-9.2 2.4-11.58 6.72-3.37 6.3-1.05 14.1 5.2 17.5 4.06 2.2 8.52 2.2 12.58 0 4.27-2.32 6.75-6.5 6.72-11.4-.03-7.12-5.82-12.85-12.9-12.82z" stroke="#fff" stroke-opacity="0" fill="#232f3e"/><use xlink:href="#d" transform="matrix(1,0,0,1,670,469) translate(33.9 14.4)"/><path d="M856.32 439.14h-69.45v-.95h69.45zm115.8 0H902.7v-.95h69.45z" stroke="#3a414a" stroke-width=".05" fill="#3a414a"/><path d="M793.9 446.3l-12.92-7.63 12.9-7.64z" fill="#3a414a"/><path d="M794.37 447.13l-14.32-8.46 14.32-8.47zm-12.46-8.46l11.52 6.8v-13.6z" stroke="#3a414a" stroke-width=".05" fill="#3a414a"/><path d="M978.02 438.67l-12.9 7.63v-15.27z" fill="#3a414a"/><path d="M978.95 438.67l-14.32 8.46V430.2zm-13.37 6.8l11.5-6.8-11.5-6.8z" stroke="#3a414a" stroke-width=".05" fill="#3a414a"/><use xlink:href="#e" transform="matrix(1,0,0,1,856.3148398148144,428) translate(0 14.222222222222223)"/><path d="M1087.87 438.67h64.26" stroke="#3a414a" fill="none"/><path d="M1081.98 438.67l12.9-7.64v15.27zM1158.02 438.67l-12.9 7.63v-15.27z" stroke="#3a414a" fill="#3a414a"/><path d="M1638.74 460h-57.48c-.66 0-1.26-.57-1.26-1.27v-3.84c0-13.65 8.94-25.08 22.14-28.3.36-.06.66-.03.96.14 4.44 2.4 9.36 2.4 13.8 0 .3-.17.6-.2.9-.13 13.26 3.2 22.2 14.65 22.2 28.3v3.83c0 .7-.6 1.27-1.26 1.27zm-56.16-2.57h54.84v-2.54c.06-12.28-7.92-22.58-19.74-25.65-2.52 1.23-4.86 1.8-7.68 1.8-2.82 0-5.16-.53-7.68-1.8-11.82 3.07-19.8 13.37-19.74 25.64z" stroke="#fff" stroke-opacity="0" fill="#232f3e"/><path d="M1610 430.98c-2.75 0-5.1-.6-7.52-1.93-7.46-4.18-10.13-13.66-5.95-21.12 4.18-7.47 13.63-10.13 21.06-5.95 5.04 2.82 7.92 7.75 7.92 13.54 0 5.82-2.94 10.78-8.05 13.53-2.4 1.3-4.74 1.93-7.46 1.93zm0-28.38c-4.95-.12-9.2 2.4-11.58 6.72-3.37 6.3-1.05 14.1 5.2 17.5 4.06 2.2 8.52 2.2 12.58 0 4.27-2.32 6.75-6.5 6.72-11.4-.03-7.12-5.82-12.85-12.9-12.82z" stroke="#fff" stroke-opacity="0" fill="#232f3e"/><use xlink:href="#f" transform="matrix(1,0,0,1,1550,469) translate(49 14.4)"/><path d="M1380.02 440.48h-52.15v-.96h52.15zm191.1 0H1519v-.96h52.15z" stroke="#3a414a" stroke-width=".05" fill="#3a414a"/><path d="M1334.9 447.64l-12.92-7.64 12.9-7.64z" fill="#3a414a"/><path d="M1335.37 448.47l-14.32-8.47 14.32-8.47zm-12.45-8.47l11.5 6.8v-13.6z" stroke="#3a414a" stroke-width=".05" fill="#3a414a"/><path d="M1577.02 440l-12.9 7.64v-15.28z" fill="#3a414a"/><path d="M1577.95 440l-14.32 8.47v-16.94zm-13.37 6.8l11.5-6.8-11.5-6.8z" stroke="#3a414a" stroke-width=".05" fill="#3a414a"/><use xlink:href="#g" transform="matrix(1,0,0,1,1380.0185435185183,429.3333333333333) translate(0 14.222222222222223)"/><path d="M960 586a6 6 0 0 1 6-6h148a6 6 0 0 1 6 6v108a6 6 0 0 1-6 6H966a6 6 0 0 1-6-6z" stroke="#282c33" stroke-width="2" fill="#fff"/><use xlink:href="#h" transform="matrix(1,0,0,1,972,592) translate(32.19753086419753 53.77777777777778)"/><use xlink:href="#i" transform="matrix(1,0,0,1,972,592) translate(88.98765432098764 53.77777777777778)"/><path d="M1160 806a6 6 0 0 1 6-6h148a6 6 0 0 1 6 6v108a6 6 0 0 1-6 6h-148a6 6 0 0 1-6-6z" stroke="#282c33" stroke-width="2" fill="#fff"/><use xlink:href="#j" transform="matrix(1,0,0,1,1172,812) translate(31.02469135802469 53.77777777777778)"/><path d="M1380 586a6 6 0 0 1 6-6h148a6 6 0 0 1 6 6v108a6 6 0 0 1-6 6h-148a6 6 0 0 1-6-6z" stroke="#282c33" stroke-width="2" fill="#fff"/><use xlink:href="#h" transform="matrix(1,0,0,1,1392,592) translate(32.19753086419753 53.77777777777778)"/><use xlink:href="#k" transform="matrix(1,0,0,1,1392,592) translate(88.98765432098764 53.77777777777778)"/><path d="M1065.2 540.48h-19.18l-.88.06-.85.2-.8.34-.75.45-.66.56-.57.65-.45.74-.33.8-.2.84-.08.88v26.1h-.94V546l.07-1 .24-.98.4-.94.52-.87.66-.78.77-.66.86-.53.94-.4 1-.23.98-.08h19.23zm175.27-6.46l-.07 1-.24.98-.4.94-.52.87-.66.78-.77.66-.86.53-.94.4-1 .23-.98.08h-19.23v-.96h19.18l.88-.06.85-.2.8-.34.75-.45.66-.56.57-.65.45-.74.33-.8.2-.84.08-.88v-26.1h.94z" stroke="#3a414a" stroke-width=".05" fill="#3a414a"/><path d="M1247.64 514.9h-15.28l7.64-12.92z" fill="#3a414a"/><path d="M1248.47 515.37h-16.94l8.47-14.32zm-15.27-.95h13.6l-6.8-11.5z" stroke="#3a414a" stroke-width=".05" fill="#3a414a"/><path d="M1040 578.02l-7.64-12.9h15.28z" fill="#3a414a"/><path d="M1040 578.95l-8.47-14.32h16.94zm-6.8-13.37l6.8 11.5 6.8-11.5z" stroke="#3a414a" stroke-width=".05" fill="#3a414a"/><use xlink:href="#l" transform="matrix(1,0,0,1,1065.20987654321,529.3333333333334) translate(0 14.222222222222223)"/><path d="M1454.02 539.52l1 .08.98.24.94.4.87.52.78.66.66.77.53.86.4.94.23 1 .07.98v26.15h-.94v-26.1l-.07-.9-.2-.84-.34-.8-.45-.75-.56-.66-.65-.57-.74-.45-.8-.33-.84-.2-.88-.07h-29.2v-.96zm-213.48-4.66l.2.85.34.8.45.75.56.66.65.57.74.45.8.33.84.2.88.07h29.2v.96h-29.24l-1-.08-.98-.24-.94-.4-.87-.52-.78-.66-.66-.77-.53-.86-.4-.94-.23-1-.07-.98V501.5h.94v32.48z" stroke="#3a414a" stroke-width=".05" fill="#3a414a"/><path d="M1460 578.02l-7.64-12.9h15.28z" fill="#3a414a"/><path d="M1460 578.95l-8.47-14.32h16.94zm-6.8-13.37l6.8 11.5 6.8-11.5z" stroke="#3a414a" stroke-width=".05" fill="#3a414a"/><path d="M1240.47 501.5h-.94v-.5h.94z" fill="#3a414a"/><path stroke="#3a414a" stroke-width=".05" fill="#3a414a"/><use xlink:href="#l" transform="matrix(1,0,0,1,1275.20987654321,529.3333333333334) translate(0 14.222222222222223)"/><path d="M1232.02 749.52l1 .08.98.24.94.4.87.52.78.66.66.77.53.86.4.94.23 1 .07.98v36.15h-.94v-36.1l-.07-.9-.2-.84-.34-.8-.45-.75-.56-.66-.65-.57-.74-.45-.8-.33-.84-.2-.88-.07h-34.8v-.96zm-191.48-4.66l.2.85.34.8.45.75.56.66.65.57.74.45.8.33.84.2.88.07h34.8v.96H1046l-1-.08-.98-.24-.94-.4-.87-.52-.78-.66-.66-.77-.53-.86-.4-.94-.23-1-.07-.98v-36.15h.94v36.1z" stroke="#3a414a" stroke-width=".05" fill="#3a414a"/><path d="M1047.64 714.9h-15.28l7.64-12.92z" fill="#3a414a"/><path d="M1048.47 715.37h-16.94l8.47-14.32zm-15.27-.95h13.6l-6.8-11.5z" stroke="#3a414a" stroke-width=".05" fill="#3a414a"/><path d="M1238 798.02l-7.64-12.9h15.28z" fill="#3a414a"/><path d="M1238 798.95l-8.47-14.32h16.94zm-6.8-13.37l6.8 11.5 6.8-11.5z" stroke="#3a414a" stroke-width=".05" fill="#3a414a"/><use xlink:href="#m" transform="matrix(1,0,0,1,1080.8272111694685,739.3333340089748) translate(0 14.222222222222223)"/><path d="M1290.83 750.48h-46.8l-.9.06-.84.2-.8.34-.75.45-.66.56-.57.65-.45.74-.33.8-.2.84-.08.88v36.1h-.94V756l.07-1 .24-.98.4-.94.52-.87.66-.78.77-.66.86-.53.94-.4 1-.23.98-.08h46.85zm169.64-6.46l-.07 1-.24.98-.4.94-.52.87-.66.78-.77.66-.86.53-.94.4-1 .23-.98.08h-46.85v-.96h46.8l.9-.06.84-.2.8-.34.75-.45.66-.56.57-.65.45-.74.33-.8.2-.84.08-.88v-36.1h.94z" stroke="#3a414a" stroke-width=".05" fill="#3a414a"/><path d="M1467.64 714.9h-15.28l7.64-12.92z" fill="#3a414a"/><path d="M1468.47 715.37h-16.94l8.47-14.32zm-15.27-.95h13.6l-6.8-11.5z" stroke="#3a414a" stroke-width=".05" fill="#3a414a"/><path d="M1238 798.02l-7.64-12.9h15.28z" fill="#3a414a"/><path d="M1238 798.95l-8.47-14.32h16.94zm-6.8-13.37l6.8 11.5 6.8-11.5z" stroke="#3a414a" stroke-width=".05" fill="#3a414a"/><g><use xlink:href="#m" transform="matrix(1,0,0,1,1290.8272111694685,739.3333340089748) translate(0 14.222222222222223)"/></g><defs><path fill="#3a414a" d="M30-248c87 1 191-15 191 75 0 78-77 80-158 76V0H30v-248zm33 125c57 0 124 11 124-50 0-59-68-47-124-48v98" id="n"/><path fill="#3a414a" d="M100-194c62-1 85 37 85 99 1 63-27 99-86 99S16-35 15-95c0-66 28-99 85-99zM99-20c44 1 53-31 53-75 0-43-8-75-51-75s-53 32-53 75 10 74 51 75" id="o"/><path fill="#3a414a" d="M24 0v-261h32V0H24" id="p"/><g id="a"><use transform="matrix(0.06172839506172839,0,0,0.06172839506172839,0,0)" xlink:href="#n"/><use transform="matrix(0.06172839506172839,0,0,0.06172839506172839,14.814814814814813,0)" xlink:href="#o"/><use transform="matrix(0.06172839506172839,0,0,0.06172839506172839,27.160493827160494,0)" xlink:href="#o"/><use transform="matrix(0.06172839506172839,0,0,0.06172839506172839,39.50617283950617,0)" xlink:href="#p"/></g><path fill="#3a414a" d="M185-189c-5-48-123-54-124 2 14 75 158 14 163 119 3 78-121 87-175 55-17-10-28-26-33-46l33-7c5 56 141 63 141-1 0-78-155-14-162-118-5-82 145-84 179-34 5 7 8 16 11 25" id="q"/><path fill="#3a414a" d="M206 0h-36l-40-164L89 0H53L-1-190h32L70-26l43-164h34l41 164 42-164h31" id="r"/><path fill="#3a414a" d="M141-36C126-15 110 5 73 4 37 3 15-17 15-53c-1-64 63-63 125-63 3-35-9-54-41-54-24 1-41 7-42 31l-33-3c5-37 33-52 76-52 45 0 72 20 72 64v82c-1 20 7 32 28 27v20c-31 9-61-2-59-35zM48-53c0 20 12 33 32 33 41-3 63-29 60-74-43 2-92-5-92 41" id="s"/><path fill="#3a414a" d="M115-194c55 1 70 41 70 98S169 2 115 4C84 4 66-9 55-30l1 105H24l-1-265h31l2 30c10-21 28-34 59-34zm-8 174c40 0 45-34 45-75s-6-73-45-74c-42 0-51 32-51 76 0 43 10 73 51 73" id="t"/><g id="b"><use transform="matrix(0.06172839506172839,0,0,0.06172839506172839,0,0)" xlink:href="#q"/><use transform="matrix(0.06172839506172839,0,0,0.06172839506172839,14.814814814814813,0)" xlink:href="#r"/><use transform="matrix(0.06172839506172839,0,0,0.06172839506172839,30.80246913580247,0)" xlink:href="#s"/><use transform="matrix(0.06172839506172839,0,0,0.06172839506172839,43.148148148148145,0)" xlink:href="#t"/></g><path fill="#3a414a" d="M197 0v-115H63V0H30v-248h33v105h134v-105h34V0h-34" id="u"/><path fill="#3a414a" d="M143 0L79-87 56-68V0H24v-261h32v163l83-92h37l-77 82L181 0h-38" id="v"/><g id="c"><use transform="matrix(0.06172839506172839,0,0,0.06172839506172839,0,0)" xlink:href="#u"/><use transform="matrix(0.06172839506172839,0,0,0.06172839506172839,15.987654320987653,0)" xlink:href="#o"/><use transform="matrix(0.06172839506172839,0,0,0.06172839506172839,28.333333333333332,0)" xlink:href="#o"/><use transform="matrix(0.06172839506172839,0,0,0.06172839506172839,40.67901234567901,0)" xlink:href="#v"/></g><path d="M127-220V0H93v-220H8v-28h204v28h-85" id="w"/><path d="M114-163C36-179 61-72 57 0H25l-1-190h30c1 12-1 29 2 39 6-27 23-49 58-41v29" id="x"/><path d="M141-36C126-15 110 5 73 4 37 3 15-17 15-53c-1-64 63-63 125-63 3-35-9-54-41-54-24 1-41 7-42 31l-33-3c5-37 33-52 76-52 45 0 72 20 72 64v82c-1 20 7 32 28 27v20c-31 9-61-2-59-35zM48-53c0 20 12 33 32 33 41-3 63-29 60-74-43 2-92-5-92 41" id="y"/><path d="M85-194c31 0 48 13 60 33l-1-100h32l1 261h-30c-2-10 0-23-3-31C134-8 116 4 85 4 32 4 16-35 15-94c0-66 23-100 70-100zm9 24c-40 0-46 34-46 75 0 40 6 74 45 74 42 0 51-32 51-76 0-42-9-74-50-73" id="z"/><path d="M100-194c63 0 86 42 84 106H49c0 40 14 67 53 68 26 1 43-12 49-29l28 8c-11 28-37 45-77 45C44 4 14-33 15-96c1-61 26-98 85-98zm52 81c6-60-76-77-97-28-3 7-6 17-6 28h103" id="A"/><g id="d"><use transform="matrix(0.05,0,0,0.05,0,0)" xlink:href="#w"/><use transform="matrix(0.05,0,0,0.05,10.3,0)" xlink:href="#x"/><use transform="matrix(0.05,0,0,0.05,16.25,0)" xlink:href="#y"/><use transform="matrix(0.05,0,0,0.05,26.25,0)" xlink:href="#z"/><use transform="matrix(0.05,0,0,0.05,36.25,0)" xlink:href="#A"/><use transform="matrix(0.05,0,0,0.05,46.25,0)" xlink:href="#x"/></g><path fill="#333" d="M169-182c-1-43-94-46-97-3 18 66 151 10 154 114 3 95-165 93-204 36-6-8-10-19-12-30l50-8c3 46 112 56 116 5-17-69-150-10-154-114-4-87 153-88 188-35 5 8 8 18 10 28" id="B"/><path fill="#333" d="M231 0h-52l-39-155L100 0H48L-1-190h46L77-45c9-52 24-97 36-145h53l37 145 32-145h46" id="C"/><path fill="#333" d="M133-34C117-15 103 5 69 4 32 3 11-16 11-54c-1-60 55-63 116-61 1-26-3-47-28-47-18 1-26 9-28 27l-52-2c7-38 36-58 82-57s74 22 75 68l1 82c-1 14 12 18 25 15v27c-30 8-71 5-69-32zm-48 3c29 0 43-24 42-57-32 0-66-3-65 30 0 17 8 27 23 27" id="D"/><path fill="#333" d="M135-194c53 0 70 44 70 98 0 56-19 98-73 100-31 1-45-17-59-34 3 33 2 69 2 105H25l-1-265h48c2 10 0 23 3 31 11-24 29-35 60-35zM114-30c33 0 39-31 40-66 0-38-9-64-40-64-56 0-55 130 0 130" id="E"/><g id="e"><use transform="matrix(0.04938271604938272,0,0,0.04938271604938272,0,0)" xlink:href="#B"/><use transform="matrix(0.04938271604938272,0,0,0.04938271604938272,11.851851851851853,0)" xlink:href="#C"/><use transform="matrix(0.04938271604938272,0,0,0.04938271604938272,25.679012345679016,0)" xlink:href="#D"/><use transform="matrix(0.04938271604938272,0,0,0.04938271604938272,35.55555555555556,0)" xlink:href="#E"/></g><path d="M30 0v-248h33v221h125V0H30" id="F"/><path d="M30-248c87 1 191-15 191 75 0 78-77 80-158 76V0H30v-248zm33 125c57 0 124 11 124-50 0-59-68-47-124-48v98" id="G"/><g id="f"><use transform="matrix(0.05,0,0,0.05,0,0)" xlink:href="#F"/><use transform="matrix(0.05,0,0,0.05,10,0)" xlink:href="#G"/></g><path fill="#333" d="M24-248c120-7 223 5 221 122C244-46 201 0 124 0H24v-248zM76-40c74 7 117-18 117-86 0-67-45-88-117-82v168" id="H"/><path fill="#333" d="M185-48c-13 30-37 53-82 52C43 2 14-33 14-96s30-98 90-98c62 0 83 45 84 108H66c0 31 8 55 39 56 18 0 30-7 34-22zm-45-69c5-46-57-63-70-21-2 6-4 13-4 21h74" id="I"/><path fill="#333" d="M110-194c64 0 96 36 96 99 0 64-35 99-97 99-61 0-95-36-95-99 0-62 34-99 96-99zm-1 164c35 0 45-28 45-65 0-40-10-65-43-65-34 0-45 26-45 65 0 36 10 65 43 65" id="J"/><path fill="#333" d="M137-138c1-29-70-34-71-4 15 46 118 7 119 86 1 83-164 76-172 9l43-7c4 19 20 25 44 25 33 8 57-30 24-41C81-84 22-81 20-136c-2-80 154-74 161-7" id="K"/><path fill="#333" d="M25-224v-37h50v37H25zM25 0v-190h50V0H25" id="L"/><path fill="#333" d="M115-3C79 11 28 4 28-45v-112H4v-33h27l15-45h31v45h36v33H77v99c-1 23 16 31 38 25v30" id="M"/><path fill="#333" d="M4 7l51-268h42L46 7H4" id="N"/><path fill="#333" d="M240-174c0 40-23 61-54 70L253 0h-59l-57-94H76V0H24v-248c93 4 217-23 216 74zM76-134c48-2 112 12 112-38 0-48-66-32-112-35v73" id="O"/><path fill="#333" d="M88-194c31-1 46 15 58 34l-1-101h50l1 261h-48c-2-10 0-23-3-31C134-8 116 4 84 4 32 4 16-41 15-95c0-56 19-97 73-99zm17 164c33 0 40-30 41-66 1-37-9-64-41-64s-38 30-39 65c0 43 13 65 39 65" id="P"/><path fill="#333" d="M220-157c-53 9-28 100-34 157h-49v-107c1-27-5-49-29-50C55-147 81-57 75 0H25l-1-190h47c2 12-1 28 3 38 10-53 101-56 108 0 13-22 24-43 59-42 82 1 51 116 57 194h-49v-107c-1-25-5-48-29-50" id="Q"/><g id="g"><use transform="matrix(0.04938271604938272,0,0,0.04938271604938272,0,0)" xlink:href="#H"/><use transform="matrix(0.04938271604938272,0,0,0.04938271604938272,12.790123456790125,0)" xlink:href="#I"/><use transform="matrix(0.04938271604938272,0,0,0.04938271604938272,22.66666666666667,0)" xlink:href="#E"/><use transform="matrix(0.04938271604938272,0,0,0.04938271604938272,33.48148148148149,0)" xlink:href="#J"/><use transform="matrix(0.04938271604938272,0,0,0.04938271604938272,44.296296296296305,0)" xlink:href="#K"/><use transform="matrix(0.04938271604938272,0,0,0.04938271604938272,54.17283950617284,0)" xlink:href="#L"/><use transform="matrix(0.04938271604938272,0,0,0.04938271604938272,59.111111111111114,0)" xlink:href="#M"/><use transform="matrix(0.04938271604938272,0,0,0.04938271604938272,64.98765432098766,0)" xlink:href="#N"/><use transform="matrix(0.04938271604938272,0,0,0.04938271604938272,69.92592592592592,0)" xlink:href="#O"/><use transform="matrix(0.04938271604938272,0,0,0.04938271604938272,82.71604938271605,0)" xlink:href="#I"/><use transform="matrix(0.04938271604938272,0,0,0.04938271604938272,92.5925925925926,0)" xlink:href="#P"/><use transform="matrix(0.04938271604938272,0,0,0.04938271604938272,103.40740740740739,0)" xlink:href="#I"/><use transform="matrix(0.04938271604938272,0,0,0.04938271604938272,113.28395061728396,0)" xlink:href="#I"/><use transform="matrix(0.04938271604938272,0,0,0.04938271604938272,123.16049382716051,0)" xlink:href="#Q"/></g><path fill="#3a414a" d="M160-131c35 5 61 23 61 61C221 17 115-2 30 0v-248c76 3 177-17 177 60 0 33-19 50-47 57zm-97-11c50-1 110 9 110-42 0-47-63-36-110-37v79zm0 115c55-2 124 14 124-45 0-56-70-42-124-44v89" id="R"/><path fill="#3a414a" d="M117-194c89-4 53 116 60 194h-32v-121c0-31-8-49-39-48C34-167 62-67 57 0H25l-1-190h30c1 10-1 24 2 32 11-22 29-35 61-36" id="S"/><g id="h"><use transform="matrix(0.06172839506172839,0,0,0.06172839506172839,0,0)" xlink:href="#R"/><use transform="matrix(0.06172839506172839,0,0,0.06172839506172839,14.814814814814813,0)" xlink:href="#s"/><use transform="matrix(0.06172839506172839,0,0,0.06172839506172839,27.160493827160494,0)" xlink:href="#S"/><use transform="matrix(0.06172839506172839,0,0,0.06172839506172839,39.50617283950617,0)" xlink:href="#v"/></g><path fill="#3a414a" d="M205 0l-28-72H64L36 0H1l101-248h38L239 0h-34zm-38-99l-47-123c-12 45-31 82-46 123h93" id="T"/><use transform="matrix(0.06172839506172839,0,0,0.06172839506172839,0,0)" xlink:href="#T" id="i"/><path fill="#3a414a" d="M84 4C-5 8 30-112 23-190h32v120c0 31 7 50 39 49 72-2 45-101 50-169h31l1 190h-30c-1-10 1-25-2-33-11 22-28 36-60 37" id="U"/><path fill="#3a414a" d="M24-231v-30h32v30H24zM24 0v-190h32V0H24" id="V"/><path fill="#3a414a" d="M100-194c63 0 86 42 84 106H49c0 40 14 67 53 68 26 1 43-12 49-29l28 8c-11 28-37 45-77 45C44 4 14-33 15-96c1-61 26-98 85-98zm52 81c6-60-76-77-97-28-3 7-6 17-6 28h103" id="W"/><path fill="#3a414a" d="M85-194c31 0 48 13 60 33l-1-100h32l1 261h-30c-2-10 0-23-3-31C134-8 116 4 85 4 32 4 16-35 15-94c0-66 23-100 70-100zm9 24c-40 0-46 34-46 75 0 40 6 74 45 74 42 0 51-32 51-76 0-42-9-74-50-73" id="X"/><g id="j"><use transform="matrix(0.06172839506172839,0,0,0.06172839506172839,0,0)" xlink:href="#q"/><use transform="matrix(0.06172839506172839,0,0,0.06172839506172839,14.814814814814813,0)" xlink:href="#U"/><use transform="matrix(0.06172839506172839,0,0,0.06172839506172839,27.160493827160494,0)" xlink:href="#V"/><use transform="matrix(0.06172839506172839,0,0,0.06172839506172839,32.03703703703704,0)" xlink:href="#p"/><use transform="matrix(0.06172839506172839,0,0,0.06172839506172839,36.91358024691358,0)" xlink:href="#W"/><use transform="matrix(0.06172839506172839,0,0,0.06172839506172839,49.25925925925926,0)" xlink:href="#S"/><use transform="matrix(0.06172839506172839,0,0,0.06172839506172839,61.60493827160494,0)" xlink:href="#X"/></g><use transform="matrix(0.06172839506172839,0,0,0.06172839506172839,0,0)" xlink:href="#R" id="k"/><path fill="#333" d="M275 0h-61l-44-196L126 0H64L0-248h53L97-49l45-199h58l43 199 44-199h52" id="Y"/><path fill="#333" d="M114-157C55-157 80-60 75 0H25v-261h50l-1 109c12-26 28-41 61-42 86-1 58 113 63 194h-50c-7-57 23-157-34-157" id="Z"/><path fill="#333" d="M135-150c-39-12-60 13-60 57V0H25l-1-190h47c2 13-1 29 3 40 6-28 27-53 61-41v41" id="aa"/><g id="l"><use transform="matrix(0.04938271604938272,0,0,0.04938271604938272,0,0)" xlink:href="#H"/><use transform="matrix(0.04938271604938272,0,0,0.04938271604938272,12.790123456790125,0)" xlink:href="#I"/><use transform="matrix(0.04938271604938272,0,0,0.04938271604938272,22.66666666666667,0)" xlink:href="#E"/><use transform="matrix(0.04938271604938272,0,0,0.04938271604938272,33.48148148148149,0)" xlink:href="#J"/><use transform="matrix(0.04938271604938272,0,0,0.04938271604938272,44.296296296296305,0)" xlink:href="#K"/><use transform="matrix(0.04938271604938272,0,0,0.04938271604938272,54.17283950617284,0)" xlink:href="#L"/><use transform="matrix(0.04938271604938272,0,0,0.04938271604938272,59.111111111111114,0)" xlink:href="#M"/><use transform="matrix(0.04938271604938272,0,0,0.04938271604938272,64.98765432098766,0)" xlink:href="#N"/><use transform="matrix(0.04938271604938272,0,0,0.04938271604938272,69.92592592592592,0)" xlink:href="#Y"/><use transform="matrix(0.04938271604938272,0,0,0.04938271604938272,86.5185185185185,0)" xlink:href="#L"/><use transform="matrix(0.04938271604938272,0,0,0.04938271604938272,91.45679012345678,0)" xlink:href="#M"/><use transform="matrix(0.04938271604938272,0,0,0.04938271604938272,97.33333333333333,0)" xlink:href="#Z"/><use transform="matrix(0.04938271604938272,0,0,0.04938271604938272,108.14814814814814,0)" xlink:href="#P"/><use transform="matrix(0.04938271604938272,0,0,0.04938271604938272,118.96296296296295,0)" xlink:href="#aa"/><use transform="matrix(0.04938271604938272,0,0,0.04938271604938272,125.87654320987653,0)" xlink:href="#D"/><use transform="matrix(0.04938271604938272,0,0,0.04938271604938272,135.75308641975306,0)" xlink:href="#C"/></g><path fill="#333" d="M25 0v-261h50V0H25" id="ab"/><path fill="#333" d="M123 10C108 53 80 86 19 72V37c35 8 53-11 59-39L3-190h52l48 148c12-52 28-100 44-148h51" id="ac"/><path fill="#333" d="M190-63c-7 42-38 67-86 67-59 0-84-38-90-98-12-110 154-137 174-36l-49 2c-2-19-15-32-35-32-30 0-35 28-38 64-6 74 65 87 74 30" id="ad"/><g id="m"><use transform="matrix(0.04938271604938272,0,0,0.04938271604938272,0,0)" xlink:href="#H"/><use transform="matrix(0.04938271604938272,0,0,0.04938271604938272,12.790123456790125,0)" xlink:href="#I"/><use transform="matrix(0.04938271604938272,0,0,0.04938271604938272,22.66666666666667,0)" xlink:href="#E"/><use transform="matrix(0.04938271604938272,0,0,0.04938271604938272,33.48148148148149,0)" xlink:href="#ab"/><use transform="matrix(0.04938271604938272,0,0,0.04938271604938272,38.41975308641976,0)" xlink:href="#J"/><use transform="matrix(0.04938271604938272,0,0,0.04938271604938272,49.23456790123458,0)" xlink:href="#ac"/><use transform="matrix(0.04938271604938272,0,0,0.04938271604938272,59.111111111111114,0)" xlink:href="#N"/><use transform="matrix(0.04938271604938272,0,0,0.04938271604938272,64.0493827160494,0)" xlink:href="#O"/><use transform="matrix(0.04938271604938272,0,0,0.04938271604938272,76.83950617283952,0)" xlink:href="#I"/><use transform="matrix(0.04938271604938272,0,0,0.04938271604938272,86.71604938271606,0)" xlink:href="#ad"/><use transform="matrix(0.04938271604938272,0,0,0.04938271604938272,96.59259259259261,0)" xlink:href="#D"/><use transform="matrix(0.04938271604938272,0,0,0.04938271604938272,106.46913580246914,0)" xlink:href="#ab"/><use transform="matrix(0.04938271604938272,0,0,0.04938271604938272,111.40740740740742,0)" xlink:href="#ab"/></g></defs></g></svg>