<svg xmlns="http://www.w3.org/2000/svg" xmlns:xlink="http://www.w3.org/1999/xlink" xmlns:lucid="lucid" width="821" height="351.33"><g transform="translate(-1880 -2184.3333333274513)" lucid:page-tab-id="0_0"><path d="M2020 2191.33a6 6 0 0 1 6-6h668a6 6 0 0 1 6 6v337.34a6 6 0 0 1-6 6h-668a6 6 0 0 1-6-6z" stroke="#282c33" stroke-width="2" fill="#fff"/><use xlink:href="#a" transform="matrix(1,0,0,1,2032,2197.333333333333) translate(290.4074074074074 17.77777777777778)"/><path d="M1938.74 2390h-57.48c-.66 0-1.26-.57-1.26-1.27v-3.84c0-13.65 8.94-25.1 22.14-28.3.36-.06.66-.03.96.14 4.44 2.4 9.36 2.4 13.8 0 .3-.17.6-.2.9-.13 13.26 3.22 22.2 14.65 22.2 28.3v3.83c0 .7-.6 1.27-1.26 1.27zm-56.16-2.57h54.84v-2.54c.06-12.28-7.92-22.58-19.74-25.65-2.52 1.23-4.86 1.8-7.68 1.8-2.82 0-5.16-.53-7.68-1.8-11.82 3.07-19.8 13.37-19.74 25.64z" stroke="#fff" stroke-opacity="0" fill="#232f3e"/><path d="M1910 2360.97c-2.75 0-5.1-.58-7.52-1.92-7.46-4.18-10.13-13.66-5.95-21.12 4.18-7.46 13.63-10.13 21.06-5.95 5.04 2.82 7.92 7.75 7.92 13.54 0 5.82-2.94 10.78-8.05 13.53-2.4 1.3-4.74 1.92-7.46 1.92zm0-28.37c-4.95-.12-9.2 2.4-11.58 6.72-3.37 6.3-1.05 14.1 5.2 17.5 4.06 2.2 8.52 2.2 12.58 0 4.27-2.32 6.75-6.5 6.72-11.4-.03-7.12-5.82-12.85-12.9-12.82z" stroke="#fff" stroke-opacity="0" fill="#232f3e"/><use xlink:href="#b" transform="matrix(1,0,0,1,1850,2398.9999999999995) translate(49 14.4)"/><path d="M2200 2246a6 6 0 0 1 6-6h148a6 6 0 0 1 6 6v108a6 6 0 0 1-6 6h-148a6 6 0 0 1-6-6z" stroke="#000" stroke-width="2" fill="#fff"/><use xlink:href="#c" transform="matrix(1,0,0,1,2212,2252) translate(30.407407407407412 38.77777777777778)"/><use xlink:href="#d" transform="matrix(1,0,0,1,2212,2252) translate(32.19753086419753 65.44444444444446)"/><use xlink:href="#e" transform="matrix(1,0,0,1,2212,2252) translate(88.98765432098764 65.44444444444446)"/><path d="M2200 2386a6 6 0 0 1 6-6h148a6 6 0 0 1 6 6v108a6 6 0 0 1-6 6h-148a6 6 0 0 1-6-6z" stroke="#000" stroke-width="2" fill="#fff"/><use xlink:href="#c" transform="matrix(1,0,0,1,2212,2392) translate(30.407407407407412 38.77777777777778)"/><use xlink:href="#d" transform="matrix(1,0,0,1,2212,2392) translate(32.19753086419753 65.44444444444446)"/><use xlink:href="#f" transform="matrix(1,0,0,1,2212,2392) translate(88.98765432098764 65.44444444444446)"/><path d="M2012.13 2360h-117.66" stroke="#3a414a" fill="none"/><path d="M2018.02 2360l-12.9 7.64v-15.28z" stroke="#3a414a" fill="#3a414a"/><path d="M1894.48 2360.47h-1.2l1.2-.82z" stroke="#3a414a" stroke-width=".05" fill="#3a414a"/><path d="M2029.97 2360.9h78.27a6 6 0 0 0 6-6V2306a6 6 0 0 1 6-6h71.9M2029.98 2360.9h-.5" stroke="#000" fill="none"/><path d="M2198.02 2300l-12.9 7.64v-15.28z" stroke="#000"/><path d="M2026.62 2360.9h80.5a6 6 0 0 1 6 6v67.1a6 6 0 0 0 6 6h73M2026.63 2360.9h-.5" stroke="#000" fill="none"/><path d="M2198.02 2440l-12.9 7.64v-15.28z" stroke="#000"/><path d="M2420 2246a6 6 0 0 1 6-6h148a6 6 0 0 1 6 6v108a6 6 0 0 1-6 6h-148a6 6 0 0 1-6-6z" fill="#fff"/><path d="M2445.73 2240h19.74m9.86 0h19.74m9.86 0h19.74m9.86 0h19.74m9.86 0h9.87l.94.07.9.22.88.35.8.5.72.6.6.72.5.8.37.88.23.9.07.95v9m0 9v18m0 9v18m0 9v18m0 9v9l-.07.94-.22.9-.35.88-.5.8-.6.72-.72.6-.8.5-.88.37-.9.23-.95.07h-9.87m-9.86 0h-19.74m-9.86 0h-19.74m-9.86 0h-19.74m-9.86 0h-19.74m-9.86 0H2426l-.94-.07-.9-.22-.88-.35-.8-.5-.72-.6-.6-.72-.5-.8-.37-.88-.23-.9-.07-.95v-9m0-9v-18m0-9v-18m0-9v-18m0-9v-9l.07-.94.22-.9.35-.88.5-.8.6-.72.72-.6.8-.5.88-.37.9-.23.95-.07h9.87" stroke="#1071e5" stroke-width="2" fill="none"/><use xlink:href="#g" transform="matrix(1,0,0,1,2432,2252) translate(33.49382716049383 26.77777777777778)"/><use xlink:href="#h" transform="matrix(1,0,0,1,2432,2252) translate(28.52469135802469 53.44444444444445)"/><use xlink:href="#i" transform="matrix(1,0,0,1,2432,2252) translate(16.271604938271608 80.11111111111111)"/><use xlink:href="#j" transform="matrix(1,0,0,1,2432,2252) translate(90.22222222222221 80.11111111111111)"/><path d="M2420 2386a6 6 0 0 1 6-6h148a6 6 0 0 1 6 6v108a6 6 0 0 1-6 6h-148a6 6 0 0 1-6-6z" fill="#fff"/><path d="M2445.73 2380h19.74m9.86 0h19.74m9.86 0h19.74m9.86 0h19.74m9.86 0h9.87l.94.07.9.22.88.35.8.5.72.6.6.72.5.8.37.88.23.9.07.95v9m0 9v18m0 9v18m0 9v18m0 9v9l-.07.94-.22.9-.35.88-.5.8-.6.72-.72.6-.8.5-.88.37-.9.23-.95.07h-9.87m-9.86 0h-19.74m-9.86 0h-19.74m-9.86 0h-19.74m-9.86 0h-19.74m-9.86 0H2426l-.94-.07-.9-.22-.88-.35-.8-.5-.72-.6-.6-.72-.5-.8-.37-.88-.23-.9-.07-.95v-9m0-9v-18m0-9v-18m0-9v-18m0-9v-9l.07-.94.22-.9.35-.88.5-.8.6-.72.72-.6.8-.5.88-.37.9-.23.95-.07h9.87" stroke="#1071e5" stroke-width="2" fill="none"/><use xlink:href="#g" transform="matrix(1,0,0,1,2432,2392) translate(33.49382716049383 26.77777777777778)"/><use xlink:href="#h" transform="matrix(1,0,0,1,2432,2392) translate(28.52469135802469 53.44444444444445)"/><use xlink:href="#i" transform="matrix(1,0,0,1,2432,2392) translate(16.271604938271608 80.11111111111111)"/><use xlink:href="#k" transform="matrix(1,0,0,1,2432,2392) translate(90.22222222222221 80.11111111111111)"/><path d="M2362 2300h8m8 0h16m8 0h8" stroke="#1071e5" stroke-width="2" fill="none"/><path d="M2362.03 2300.97H2361v-1.94h1.03z" stroke="#1071e5" stroke-width=".05" fill="#1071e5"/><path d="M2417.04 2300l-12.92 7.64v-15.28z" stroke="#1071e5" stroke-width="2" fill="#1071e5"/><path d="M2362 2440h8m8 0h16m8 0h8" stroke="#1071e5" stroke-width="2" fill="none"/><path d="M2362.03 2440.97H2361v-1.94h1.03z" stroke="#1071e5" stroke-width=".05" fill="#1071e5"/><path d="M2417.04 2440l-12.92 7.64v-15.28z" stroke="#1071e5" stroke-width="2" fill="#1071e5"/><defs><path fill="#3a414a" d="M30-248c118-7 216 8 213 122C240-48 200 0 122 0H30v-248zM63-27c89 8 146-16 146-99s-60-101-146-95v194" id="l"/><path fill="#3a414a" d="M100-194c63 0 86 42 84 106H49c0 40 14 67 53 68 26 1 43-12 49-29l28 8c-11 28-37 45-77 45C44 4 14-33 15-96c1-61 26-98 85-98zm52 81c6-60-76-77-97-28-3 7-6 17-6 28h103" id="m"/><path fill="#3a414a" d="M115-194c55 1 70 41 70 98S169 2 115 4C84 4 66-9 55-30l1 105H24l-1-265h31l2 30c10-21 28-34 59-34zm-8 174c40 0 45-34 45-75s-6-73-45-74c-42 0-51 32-51 76 0 43 10 73 51 73" id="n"/><path fill="#3a414a" d="M100-194c62-1 85 37 85 99 1 63-27 99-86 99S16-35 15-95c0-66 28-99 85-99zM99-20c44 1 53-31 53-75 0-43-8-75-51-75s-53 32-53 75 10 74 51 75" id="o"/><path fill="#3a414a" d="M135-143c-3-34-86-38-87 0 15 53 115 12 119 90S17 21 10-45l28-5c4 36 97 45 98 0-10-56-113-15-118-90-4-57 82-63 122-42 12 7 21 19 24 35" id="p"/><path fill="#3a414a" d="M24-231v-30h32v30H24zM24 0v-190h32V0H24" id="q"/><path fill="#3a414a" d="M59-47c-2 24 18 29 38 22v24C64 9 27 4 27-40v-127H5v-23h24l9-43h21v43h35v23H59v120" id="r"/><g id="a"><use transform="matrix(0.06172839506172839,0,0,0.06172839506172839,0,0)" xlink:href="#l"/><use transform="matrix(0.06172839506172839,0,0,0.06172839506172839,15.987654320987653,0)" xlink:href="#m"/><use transform="matrix(0.06172839506172839,0,0,0.06172839506172839,28.333333333333332,0)" xlink:href="#n"/><use transform="matrix(0.06172839506172839,0,0,0.06172839506172839,40.67901234567901,0)" xlink:href="#o"/><use transform="matrix(0.06172839506172839,0,0,0.06172839506172839,53.02469135802469,0)" xlink:href="#p"/><use transform="matrix(0.06172839506172839,0,0,0.06172839506172839,64.1358024691358,0)" xlink:href="#q"/><use transform="matrix(0.06172839506172839,0,0,0.06172839506172839,69.01234567901234,0)" xlink:href="#r"/></g><path d="M30 0v-248h33v221h125V0H30" id="s"/><path d="M30-248c87 1 191-15 191 75 0 78-77 80-158 76V0H30v-248zm33 125c57 0 124 11 124-50 0-59-68-47-124-48v98" id="t"/><g id="b"><use transform="matrix(0.05,0,0,0.05,0,0)" xlink:href="#s"/><use transform="matrix(0.05,0,0,0.05,10,0)" xlink:href="#t"/></g><g id="c"><use transform="matrix(0.06172839506172839,0,0,0.06172839506172839,0,0)" xlink:href="#l"/><use transform="matrix(0.06172839506172839,0,0,0.06172839506172839,15.987654320987653,0)" xlink:href="#m"/><use transform="matrix(0.06172839506172839,0,0,0.06172839506172839,28.333333333333332,0)" xlink:href="#n"/><use transform="matrix(0.06172839506172839,0,0,0.06172839506172839,40.67901234567901,0)" xlink:href="#o"/><use transform="matrix(0.06172839506172839,0,0,0.06172839506172839,53.02469135802469,0)" xlink:href="#p"/><use transform="matrix(0.06172839506172839,0,0,0.06172839506172839,64.1358024691358,0)" xlink:href="#q"/><use transform="matrix(0.06172839506172839,0,0,0.06172839506172839,69.01234567901234,0)" xlink:href="#r"/></g><path fill="#3a414a" d="M160-131c35 5 61 23 61 61C221 17 115-2 30 0v-248c76 3 177-17 177 60 0 33-19 50-47 57zm-97-11c50-1 110 9 110-42 0-47-63-36-110-37v79zm0 115c55-2 124 14 124-45 0-56-70-42-124-44v89" id="u"/><path fill="#3a414a" d="M141-36C126-15 110 5 73 4 37 3 15-17 15-53c-1-64 63-63 125-63 3-35-9-54-41-54-24 1-41 7-42 31l-33-3c5-37 33-52 76-52 45 0 72 20 72 64v82c-1 20 7 32 28 27v20c-31 9-61-2-59-35zM48-53c0 20 12 33 32 33 41-3 63-29 60-74-43 2-92-5-92 41" id="v"/><path fill="#3a414a" d="M117-194c89-4 53 116 60 194h-32v-121c0-31-8-49-39-48C34-167 62-67 57 0H25l-1-190h30c1 10-1 24 2 32 11-22 29-35 61-36" id="w"/><path fill="#3a414a" d="M143 0L79-87 56-68V0H24v-261h32v163l83-92h37l-77 82L181 0h-38" id="x"/><g id="d"><use transform="matrix(0.06172839506172839,0,0,0.06172839506172839,0,0)" xlink:href="#u"/><use transform="matrix(0.06172839506172839,0,0,0.06172839506172839,14.814814814814813,0)" xlink:href="#v"/><use transform="matrix(0.06172839506172839,0,0,0.06172839506172839,27.160493827160494,0)" xlink:href="#w"/><use transform="matrix(0.06172839506172839,0,0,0.06172839506172839,39.50617283950617,0)" xlink:href="#x"/></g><path fill="#3a414a" d="M205 0l-28-72H64L36 0H1l101-248h38L239 0h-34zm-38-99l-47-123c-12 45-31 82-46 123h93" id="y"/><use transform="matrix(0.06172839506172839,0,0,0.06172839506172839,0,0)" xlink:href="#y" id="e"/><use transform="matrix(0.06172839506172839,0,0,0.06172839506172839,0,0)" xlink:href="#u" id="f"/><path fill="#3a414a" d="M24 0v-261h32V0H24" id="z"/><path fill="#3a414a" d="M179-190L93 31C79 59 56 82 12 73V49c39 6 53-20 64-50L1-190h34L92-34l54-156h33" id="A"/><g id="g"><use transform="matrix(0.06172839506172839,0,0,0.06172839506172839,0,0)" xlink:href="#l"/><use transform="matrix(0.06172839506172839,0,0,0.06172839506172839,15.987654320987653,0)" xlink:href="#m"/><use transform="matrix(0.06172839506172839,0,0,0.06172839506172839,28.333333333333332,0)" xlink:href="#n"/><use transform="matrix(0.06172839506172839,0,0,0.06172839506172839,40.67901234567901,0)" xlink:href="#z"/><use transform="matrix(0.06172839506172839,0,0,0.06172839506172839,45.55555555555556,0)" xlink:href="#o"/><use transform="matrix(0.06172839506172839,0,0,0.06172839506172839,57.901234567901234,0)" xlink:href="#A"/></g><path fill="#3a414a" d="M30 0v-248h33v221h125V0H30" id="B"/><path fill="#3a414a" d="M85-194c31 0 48 13 60 33l-1-100h32l1 261h-30c-2-10 0-23-3-31C134-8 116 4 85 4 32 4 16-35 15-94c0-66 23-100 70-100zm9 24c-40 0-46 34-46 75 0 40 6 74 45 74 42 0 51-32 51-76 0-42-9-74-50-73" id="C"/><path fill="#3a414a" d="M177-190C167-65 218 103 67 71c-23-6-38-20-44-43l32-5c15 47 100 32 89-28v-30C133-14 115 1 83 1 29 1 15-40 15-95c0-56 16-97 71-98 29-1 48 16 59 35 1-10 0-23 2-32h30zM94-22c36 0 50-32 50-73 0-42-14-75-50-75-39 0-46 34-46 75s6 73 46 73" id="D"/><g id="h"><use transform="matrix(0.06172839506172839,0,0,0.06172839506172839,0,0)" xlink:href="#B"/><use transform="matrix(0.06172839506172839,0,0,0.06172839506172839,12.345679012345679,0)" xlink:href="#m"/><use transform="matrix(0.06172839506172839,0,0,0.06172839506172839,24.691358024691358,0)" xlink:href="#w"/><use transform="matrix(0.06172839506172839,0,0,0.06172839506172839,37.03703703703704,0)" xlink:href="#C"/><use transform="matrix(0.06172839506172839,0,0,0.06172839506172839,49.382716049382715,0)" xlink:href="#q"/><use transform="matrix(0.06172839506172839,0,0,0.06172839506172839,54.25925925925926,0)" xlink:href="#w"/><use transform="matrix(0.06172839506172839,0,0,0.06172839506172839,66.60493827160494,0)" xlink:href="#D"/></g><path fill="#3a414a" d="M240 0l2-218c-23 76-54 145-80 218h-23L58-218 59 0H30v-248h44l77 211c21-75 51-140 76-211h43V0h-30" id="E"/><path fill="#3a414a" d="M114-163C36-179 61-72 57 0H25l-1-190h30c1 12-1 29 2 39 6-27 23-49 58-41v29" id="F"/><g id="i"><use transform="matrix(0.06172839506172839,0,0,0.06172839506172839,0,0)" xlink:href="#E"/><use transform="matrix(0.06172839506172839,0,0,0.06172839506172839,18.456790123456788,0)" xlink:href="#v"/><use transform="matrix(0.06172839506172839,0,0,0.06172839506172839,30.80246913580247,0)" xlink:href="#F"/><use transform="matrix(0.06172839506172839,0,0,0.06172839506172839,38.148148148148145,0)" xlink:href="#x"/><use transform="matrix(0.06172839506172839,0,0,0.06172839506172839,49.25925925925925,0)" xlink:href="#m"/><use transform="matrix(0.06172839506172839,0,0,0.06172839506172839,61.60493827160493,0)" xlink:href="#r"/></g><path fill="#3a414a" d="M87 75C49 33 22-17 22-94c0-76 28-126 65-167h31c-38 41-64 92-64 168S80 34 118 75H87" id="G"/><path fill="#3a414a" d="M33-261c38 41 65 92 65 168S71 34 33 75H2C39 34 66-17 66-93S39-220 2-261h31" id="H"/><g id="j"><use transform="matrix(0.06172839506172839,0,0,0.06172839506172839,0,0)" xlink:href="#G"/><use transform="matrix(0.06172839506172839,0,0,0.06172839506172839,7.345679012345679,0)" xlink:href="#y"/><use transform="matrix(0.06172839506172839,0,0,0.06172839506172839,22.160493827160494,0)" xlink:href="#H"/></g><g id="k"><use transform="matrix(0.06172839506172839,0,0,0.06172839506172839,0,0)" xlink:href="#G"/><use transform="matrix(0.06172839506172839,0,0,0.06172839506172839,7.345679012345679,0)" xlink:href="#u"/><use transform="matrix(0.06172839506172839,0,0,0.06172839506172839,22.160493827160494,0)" xlink:href="#H"/></g></defs></g></svg>