<svg xmlns="http://www.w3.org/2000/svg" xmlns:xlink="http://www.w3.org/1999/xlink" xmlns:lucid="lucid" width="582" height="761"><g transform="translate(-958.99999996362 -2060)" lucid:page-tab-id="0_0"><path d="M0 0h2000v3000H0z" fill="#fff"/><path d="M1160 2286a6 6 0 0 1 6-6h148a6 6 0 0 1 6 6v108a6 6 0 0 1-6 6h-148a6 6 0 0 1-6-6z" stroke="#282c33" stroke-width="2" fill="#fff"/><use xlink:href="#a" transform="matrix(1,0,0,1,1172,2292) translate(45.808641975308646 53.77777777777778)"/><path d="M960 2486a6 6 0 0 1 6-6h148a6 6 0 0 1 6 6v108a6 6 0 0 1-6 6H966a6 6 0 0 1-6-6z" stroke="#282c33" stroke-width="2" fill="#fff"/><use xlink:href="#b" transform="matrix(1,0,0,1,972,2492) translate(32.19753086419753 53.77777777777778)"/><use xlink:href="#c" transform="matrix(1,0,0,1,972,2492) translate(88.98765432098764 53.77777777777778)"/><path d="M1160 2706a6 6 0 0 1 6-6h148a6 6 0 0 1 6 6v108a6 6 0 0 1-6 6h-148a6 6 0 0 1-6-6z" stroke="#282c33" stroke-width="2" fill="#fff"/><use xlink:href="#d" transform="matrix(1,0,0,1,1172,2712) translate(31.02469135802469 53.77777777777778)"/><path d="M1380 2486a6 6 0 0 1 6-6h148a6 6 0 0 1 6 6v108a6 6 0 0 1-6 6h-148a6 6 0 0 1-6-6z" stroke="#282c33" stroke-width="2" fill="#fff"/><use xlink:href="#b" transform="matrix(1,0,0,1,1392,2492) translate(32.19753086419753 53.77777777777778)"/><use xlink:href="#e" transform="matrix(1,0,0,1,1392,2492) translate(88.98765432098764 53.77777777777778)"/><path d="M1092.33 2440.47h-46.3l-.9.07-.84.2-.8.34-.75.45-.66.56-.57.65-.45.74-.33.8-.2.84-.08.88v26.1h-.94V2446l.07-1 .24-.98.4-.94.52-.87.66-.78.77-.66.86-.53.94-.4 1-.23.98-.07h46.35zm117.8-6.45l-.1 1-.23.98-.38.94-.54.87-.66.78-.77.66-.87.53-.93.4-1 .23-1 .07h-46.33v-.94h46.3l.9-.07.83-.2.8-.34.74-.45.65-.56.56-.65.47-.74.33-.8.2-.84.07-.88v-32.48h.95z" stroke="#3a414a" stroke-width=".05" fill="#3a414a"/><path d="M1210.12 2401.5h-.95v-.5h.95z" fill="#3a414a"/><path stroke="#3a414a" stroke-width=".05" fill="#3a414a"/><path d="M1040 2478.02l-7.64-12.9h15.28z" fill="#3a414a"/><path d="M1040 2478.95l-8.47-14.32h16.94zm-6.8-13.37l6.8 11.5 6.8-11.5z" stroke="#3a414a" stroke-width=".05" fill="#3a414a"/><use xlink:href="#f" transform="matrix(1,0,0,1,1092.328435246273,2429.3333435885615) translate(0 14.222222222222223)"/><path d="M1454.02 2439.53l1 .07.98.24.94.4.87.52.78.66.66.77.53.86.4.94.23 1 .07.98v26.15h-.94v-26.1l-.07-.9-.2-.84-.34-.8-.45-.75-.56-.66-.65-.57-.74-.45-.8-.33-.84-.2-.88-.08h-57v-.94zm-184.52-4.67l.2.85.34.8.45.75.55.66.66.57.75.45.8.33.84.2.88.08h57v.94h-57.04l-1-.07-.98-.24-.94-.4-.87-.52-.77-.66-.66-.77-.53-.86-.4-.94-.24-1-.08-.98v-32.52h.95v32.48z" stroke="#3a414a" stroke-width=".05" fill="#3a414a"/><path d="M1460 2478.02l-7.64-12.9h15.28z" fill="#3a414a"/><path d="M1460 2478.95l-8.47-14.32h16.94zm-6.8-13.37l6.8 11.5 6.8-11.5z" stroke="#3a414a" stroke-width=".05" fill="#3a414a"/><path d="M1269.43 2401.5h-.95v-.5h.95z" fill="#3a414a"/><path stroke="#3a414a" stroke-width=".05" fill="#3a414a"/><use xlink:href="#f" transform="matrix(1,0,0,1,1331.985219003237,2429.333323550194) translate(0 14.222222222222223)"/><path d="M1040.47 2753.98l.07.88.2.85.34.8.45.75.56.66.65.57.74.45.8.33.84.2.88.08h5.03v.94h-5.07l-1-.07-.98-.24-.94-.4-.87-.52-.78-.66-.66-.77-.53-.86-.4-.94-.23-1-.07-.98v-3.35h.94zm25.74 6.5h-10.1v-.95h10.12zm15.18 0h-10.1v-.95h10.1zm15.16 0h-10.1v-.95h10.1zm15.16 0h-10.1v-.95h10.1zm15.16 0h-10.1v-.95h10.1zm15.16 0h-10.1v-.95h10.1zm10.1 0h-5.05v-.95h5.06zm-111.64-31.9h-.95v-10.16h.94zm0-15.25h-.95v-10.16h.94zm0-15.25h-.95v-10.16h.94zm0-15.25h-.95v-10.16h.94zm0-15.25h-.95v-10.16h.94zm0-15.25h-.95v-10.16h.94zm0-15.25h-.95v-10.16h.94zm0-15.25h-.95v-10.16h.94zm0-15.25h-.95v-5.08h.94z" stroke="#3a414a" stroke-width=".05" fill="#3a414a"/><path d="M1040.47 2601.5h-.94v-.5h.94z" fill="#3a414a"/><path stroke="#3a414a" stroke-width=".05" fill="#3a414a"/><path d="M1158.02 2760l-12.9 7.64v-15.28z" fill="#3a414a"/><path d="M1158.95 2760l-14.32 8.47v-16.94zm-13.37 6.8l11.5-6.8-11.5-6.8z" stroke="#3a414a" stroke-width=".05" fill="#3a414a"/><use xlink:href="#g" transform="matrix(1,0,0,1,1010.4444444444445,2729.3333333333335) translate(0 14.222222222222223)"/><path d="M1427.72 2760.47h-10.5v-.94h10.5zm-15.76 0h-10.5v-.94h10.5zm-15.77 0h-10.52v-.94h10.5zm-15.77 0h-10.5v-.94h10.5zm-15.77 0h-10.5v-.94h10.5zm-15.77 0h-10.52v-.94h10.5zm-15.77 0h-5.26v-.94h5.26zm127.34-21.14h-.94v-5.66h.94zm0-10.75h-.94v-10.16h.94zm0-15.25h-.94v-10.16h.94zm0-15.25h-.94v-10.16h.94zm0-15.25h-.94v-10.16h.94zm0-15.25h-.94v-10.16h.94zm0-15.25h-.94v-10.16h.94zm0-15.25h-.94v-10.16h.94zm0-15.25h-.94v-10.16h.94zm0-15.25h-.94v-5.08h.94z" stroke="#3a414a" stroke-width=".05" fill="#3a414a"/><path d="M1460.47 2601.5h-.94v-.5h.94z" fill="#3a414a"/><path stroke="#3a414a" stroke-width=".05" fill="#3a414a"/><path d="M1334.9 2767.64l-12.92-7.64 12.9-7.64z" fill="#3a414a"/><path d="M1335.37 2768.47l-14.32-8.47 14.32-8.47zm-12.45-8.47l11.5 6.8v-13.6z" stroke="#3a414a" stroke-width=".05" fill="#3a414a"/><use xlink:href="#g" transform="matrix(1,0,0,1,1430.4444444444443,2739.3333333333335) translate(0 14.222222222222223)"/><path d="M1278.74 2120h-57.48c-.66 0-1.26-.57-1.26-1.27v-3.84c0-13.65 8.94-25.1 22.14-28.3.36-.06.66-.03.96.14 4.44 2.4 9.36 2.4 13.8 0 .3-.17.6-.2.9-.13 13.26 3.22 22.2 14.65 22.2 28.3v3.83c0 .7-.6 1.27-1.26 1.27zm-56.16-2.57h54.84v-2.54c.06-12.28-7.92-22.58-19.74-25.65-2.52 1.23-4.86 1.8-7.68 1.8-2.82 0-5.16-.53-7.68-1.8-11.82 3.07-19.8 13.37-19.74 25.64z" stroke="#fff" stroke-opacity="0" fill="#232f3e"/><path d="M1250 2090.97c-2.75 0-5.1-.58-7.52-1.92-7.46-4.18-10.13-13.66-5.95-21.12 4.18-7.46 13.63-10.13 21.06-5.95 5.04 2.82 7.92 7.75 7.92 13.54 0 5.82-2.94 10.78-8.05 13.53-2.4 1.3-4.74 1.92-7.46 1.92zm0-28.37c-4.95-.12-9.2 2.4-11.58 6.72-3.37 6.3-1.05 14.1 5.2 17.5 4.06 2.2 8.52 2.2 12.58 0 4.27-2.32 6.75-6.5 6.72-11.4-.03-7.12-5.82-12.85-12.9-12.82z" stroke="#fff" stroke-opacity="0" fill="#232f3e"/><use xlink:href="#h" transform="matrix(1,0,0,1,1190,2129) translate(49 14.4)"/><path d="M1250.47 2272.13h-.94v-41.96h.94zm0-63.3h-.94v-48.33h.94zM1250.47 2160.5h-.94v-.5h.94z" stroke="#3a414a" stroke-width=".05" fill="#3a414a"/><path d="M1250 2278.02l-7.64-12.9h15.28z" fill="#3a414a"/><path d="M1250 2278.95l-8.47-14.32h16.94zm-6.8-13.37l6.8 11.5 6.8-11.5z" stroke="#3a414a" stroke-width=".05" fill="#3a414a"/><g><use xlink:href="#f" transform="matrix(1,0,0,1,1217.5061728395062,2208.8333549549548) translate(0 14.222222222222223)"/></g><defs><path fill="#3a414a" d="M30-248c87 1 191-15 191 75 0 78-77 80-158 76V0H30v-248zm33 125c57 0 124 11 124-50 0-59-68-47-124-48v98" id="i"/><path fill="#3a414a" d="M100-194c62-1 85 37 85 99 1 63-27 99-86 99S16-35 15-95c0-66 28-99 85-99zM99-20c44 1 53-31 53-75 0-43-8-75-51-75s-53 32-53 75 10 74 51 75" id="j"/><path fill="#3a414a" d="M24 0v-261h32V0H24" id="k"/><g id="a"><use transform="matrix(0.06172839506172839,0,0,0.06172839506172839,0,0)" xlink:href="#i"/><use transform="matrix(0.06172839506172839,0,0,0.06172839506172839,14.814814814814813,0)" xlink:href="#j"/><use transform="matrix(0.06172839506172839,0,0,0.06172839506172839,27.160493827160494,0)" xlink:href="#j"/><use transform="matrix(0.06172839506172839,0,0,0.06172839506172839,39.50617283950617,0)" xlink:href="#k"/></g><path fill="#3a414a" d="M160-131c35 5 61 23 61 61C221 17 115-2 30 0v-248c76 3 177-17 177 60 0 33-19 50-47 57zm-97-11c50-1 110 9 110-42 0-47-63-36-110-37v79zm0 115c55-2 124 14 124-45 0-56-70-42-124-44v89" id="l"/><path fill="#3a414a" d="M141-36C126-15 110 5 73 4 37 3 15-17 15-53c-1-64 63-63 125-63 3-35-9-54-41-54-24 1-41 7-42 31l-33-3c5-37 33-52 76-52 45 0 72 20 72 64v82c-1 20 7 32 28 27v20c-31 9-61-2-59-35zM48-53c0 20 12 33 32 33 41-3 63-29 60-74-43 2-92-5-92 41" id="m"/><path fill="#3a414a" d="M117-194c89-4 53 116 60 194h-32v-121c0-31-8-49-39-48C34-167 62-67 57 0H25l-1-190h30c1 10-1 24 2 32 11-22 29-35 61-36" id="n"/><path fill="#3a414a" d="M143 0L79-87 56-68V0H24v-261h32v163l83-92h37l-77 82L181 0h-38" id="o"/><g id="b"><use transform="matrix(0.06172839506172839,0,0,0.06172839506172839,0,0)" xlink:href="#l"/><use transform="matrix(0.06172839506172839,0,0,0.06172839506172839,14.814814814814813,0)" xlink:href="#m"/><use transform="matrix(0.06172839506172839,0,0,0.06172839506172839,27.160493827160494,0)" xlink:href="#n"/><use transform="matrix(0.06172839506172839,0,0,0.06172839506172839,39.50617283950617,0)" xlink:href="#o"/></g><path fill="#3a414a" d="M205 0l-28-72H64L36 0H1l101-248h38L239 0h-34zm-38-99l-47-123c-12 45-31 82-46 123h93" id="p"/><use transform="matrix(0.06172839506172839,0,0,0.06172839506172839,0,0)" xlink:href="#p" id="c"/><path fill="#3a414a" d="M185-189c-5-48-123-54-124 2 14 75 158 14 163 119 3 78-121 87-175 55-17-10-28-26-33-46l33-7c5 56 141 63 141-1 0-78-155-14-162-118-5-82 145-84 179-34 5 7 8 16 11 25" id="q"/><path fill="#3a414a" d="M84 4C-5 8 30-112 23-190h32v120c0 31 7 50 39 49 72-2 45-101 50-169h31l1 190h-30c-1-10 1-25-2-33-11 22-28 36-60 37" id="r"/><path fill="#3a414a" d="M24-231v-30h32v30H24zM24 0v-190h32V0H24" id="s"/><path fill="#3a414a" d="M100-194c63 0 86 42 84 106H49c0 40 14 67 53 68 26 1 43-12 49-29l28 8c-11 28-37 45-77 45C44 4 14-33 15-96c1-61 26-98 85-98zm52 81c6-60-76-77-97-28-3 7-6 17-6 28h103" id="t"/><path fill="#3a414a" d="M85-194c31 0 48 13 60 33l-1-100h32l1 261h-30c-2-10 0-23-3-31C134-8 116 4 85 4 32 4 16-35 15-94c0-66 23-100 70-100zm9 24c-40 0-46 34-46 75 0 40 6 74 45 74 42 0 51-32 51-76 0-42-9-74-50-73" id="u"/><g id="d"><use transform="matrix(0.06172839506172839,0,0,0.06172839506172839,0,0)" xlink:href="#q"/><use transform="matrix(0.06172839506172839,0,0,0.06172839506172839,14.814814814814813,0)" xlink:href="#r"/><use transform="matrix(0.06172839506172839,0,0,0.06172839506172839,27.160493827160494,0)" xlink:href="#s"/><use transform="matrix(0.06172839506172839,0,0,0.06172839506172839,32.03703703703704,0)" xlink:href="#k"/><use transform="matrix(0.06172839506172839,0,0,0.06172839506172839,36.91358024691358,0)" xlink:href="#t"/><use transform="matrix(0.06172839506172839,0,0,0.06172839506172839,49.25925925925926,0)" xlink:href="#n"/><use transform="matrix(0.06172839506172839,0,0,0.06172839506172839,61.60493827160494,0)" xlink:href="#u"/></g><use transform="matrix(0.06172839506172839,0,0,0.06172839506172839,0,0)" xlink:href="#l" id="e"/><path fill="#333" d="M24-248c120-7 223 5 221 122C244-46 201 0 124 0H24v-248zM76-40c74 7 117-18 117-86 0-67-45-88-117-82v168" id="v"/><path fill="#333" d="M185-48c-13 30-37 53-82 52C43 2 14-33 14-96s30-98 90-98c62 0 83 45 84 108H66c0 31 8 55 39 56 18 0 30-7 34-22zm-45-69c5-46-57-63-70-21-2 6-4 13-4 21h74" id="w"/><path fill="#333" d="M135-194c53 0 70 44 70 98 0 56-19 98-73 100-31 1-45-17-59-34 3 33 2 69 2 105H25l-1-265h48c2 10 0 23 3 31 11-24 29-35 60-35zM114-30c33 0 39-31 40-66 0-38-9-64-40-64-56 0-55 130 0 130" id="x"/><path fill="#333" d="M110-194c64 0 96 36 96 99 0 64-35 99-97 99-61 0-95-36-95-99 0-62 34-99 96-99zm-1 164c35 0 45-28 45-65 0-40-10-65-43-65-34 0-45 26-45 65 0 36 10 65 43 65" id="y"/><path fill="#333" d="M137-138c1-29-70-34-71-4 15 46 118 7 119 86 1 83-164 76-172 9l43-7c4 19 20 25 44 25 33 8 57-30 24-41C81-84 22-81 20-136c-2-80 154-74 161-7" id="z"/><path fill="#333" d="M25-224v-37h50v37H25zM25 0v-190h50V0H25" id="A"/><path fill="#333" d="M115-3C79 11 28 4 28-45v-112H4v-33h27l15-45h31v45h36v33H77v99c-1 23 16 31 38 25v30" id="B"/><g id="f"><use transform="matrix(0.04938271604938272,0,0,0.04938271604938272,0,0)" xlink:href="#v"/><use transform="matrix(0.04938271604938272,0,0,0.04938271604938272,12.790123456790125,0)" xlink:href="#w"/><use transform="matrix(0.04938271604938272,0,0,0.04938271604938272,22.66666666666667,0)" xlink:href="#x"/><use transform="matrix(0.04938271604938272,0,0,0.04938271604938272,33.48148148148149,0)" xlink:href="#y"/><use transform="matrix(0.04938271604938272,0,0,0.04938271604938272,44.296296296296305,0)" xlink:href="#z"/><use transform="matrix(0.04938271604938272,0,0,0.04938271604938272,54.17283950617284,0)" xlink:href="#A"/><use transform="matrix(0.04938271604938272,0,0,0.04938271604938272,59.111111111111114,0)" xlink:href="#B"/></g><path fill="#333" d="M25 0v-261h50V0H25" id="C"/><path fill="#333" d="M123 10C108 53 80 86 19 72V37c35 8 53-11 59-39L3-190h52l48 148c12-52 28-100 44-148h51" id="D"/><g id="g"><use transform="matrix(0.04938271604938272,0,0,0.04938271604938272,0,0)" xlink:href="#v"/><use transform="matrix(0.04938271604938272,0,0,0.04938271604938272,12.790123456790125,0)" xlink:href="#w"/><use transform="matrix(0.04938271604938272,0,0,0.04938271604938272,22.66666666666667,0)" xlink:href="#x"/><use transform="matrix(0.04938271604938272,0,0,0.04938271604938272,33.48148148148149,0)" xlink:href="#C"/><use transform="matrix(0.04938271604938272,0,0,0.04938271604938272,38.41975308641976,0)" xlink:href="#y"/><use transform="matrix(0.04938271604938272,0,0,0.04938271604938272,49.23456790123458,0)" xlink:href="#D"/></g><path d="M30 0v-248h33v221h125V0H30" id="E"/><path d="M30-248c87 1 191-15 191 75 0 78-77 80-158 76V0H30v-248zm33 125c57 0 124 11 124-50 0-59-68-47-124-48v98" id="F"/><g id="h"><use transform="matrix(0.05,0,0,0.05,0,0)" xlink:href="#E"/><use transform="matrix(0.05,0,0,0.05,10,0)" xlink:href="#F"/></g></defs></g></svg>