<svg xmlns="http://www.w3.org/2000/svg" xmlns:xlink="http://www.w3.org/1999/xlink" xmlns:lucid="lucid" width="901" height="161"><g transform="translate(-1820 -1450)" lucid:page-tab-id="0_0"><path d="M0 0h3000v3000H0z" fill="#fff"/><path d="M1968.67 1517.33a6 6 0 0 1 6-6h88a6 6 0 0 1 6 6v65.34a6 6 0 0 1-6 6h-88a6 6 0 0 1-6-6z" stroke="#282c33" stroke-width="2" fill="#fff"/><use xlink:href="#a" transform="matrix(1,0,0,1,1980.6666666666667,1523.3333333333335) translate(10.222222222222221 21.15277777777778)"/><use xlink:href="#b" transform="matrix(1,0,0,1,1980.6666666666667,1523.3333333333335) translate(10.253086419753089 47.81944444444444)"/><path d="M1878.74 1580h-57.48c-.66 0-1.26-.57-1.26-1.27v-3.84c0-13.65 8.94-25.1 22.14-28.3.36-.06.66-.03.96.14 4.44 2.4 9.36 2.4 13.8 0 .3-.17.6-.2.9-.13 13.26 3.22 22.2 14.65 22.2 28.3v3.83c0 .7-.6 1.27-1.26 1.27zm-56.16-2.57h54.84v-2.54c.06-12.28-7.92-22.58-19.74-25.65-2.52 1.23-4.86 1.8-7.68 1.8-2.82 0-5.16-.53-7.68-1.8-11.82 3.07-19.8 13.37-19.74 25.64z" stroke="#fff" stroke-opacity="0" fill="#232f3e"/><path d="M1850 1550.97c-2.75 0-5.1-.58-7.52-1.92-7.46-4.18-10.13-13.66-5.95-21.12 4.18-7.47 13.63-10.13 21.06-5.95 5.04 2.82 7.92 7.75 7.92 13.54 0 5.82-2.94 10.78-8.05 13.53-2.4 1.3-4.74 1.92-7.46 1.92zm0-28.37c-4.95-.12-9.2 2.4-11.58 6.72-3.37 6.3-1.05 14.1 5.2 17.5 4.06 2.2 8.52 2.2 12.58 0 4.27-2.32 6.75-6.5 6.72-11.4-.03-7.12-5.82-12.85-12.9-12.82z" stroke="#fff" stroke-opacity="0" fill="#232f3e"/><use xlink:href="#c" transform="matrix(1,0,0,1,1790,1589) translate(33.9 14.4)"/><path d="M2161.33 1496a6 6 0 0 1 6-6h148a6 6 0 0 1 6 6v108a6 6 0 0 1-6 6h-148a6 6 0 0 1-6-6z" fill="#fff"/><path d="M2187.07 1490h19.73m9.87 0h19.73m9.87 0H2266m9.87 0h19.73m9.87 0h9.86l.94.07.92.22.86.35.8.5.72.6.6.72.5.8.36.88.22.9.07.95v9m0 9v18m0 9v18m0 9v18m0 9v9l-.07.94-.22.9-.36.88-.5.8-.6.72-.72.6-.8.5-.87.37-.93.23-.94.07h-9.86m-9.87 0h-19.73m-9.87 0h-19.73m-9.87 0h-19.73m-9.87 0h-19.73m-9.87 0h-9.87l-.93-.07-.92-.22-.87-.35-.8-.5-.7-.6-.62-.72-.5-.8-.35-.88-.22-.9-.07-.95v-9m0-9v-18m0-9v-18m0-9v-18m0-9v-9l.08-.94.23-.9.36-.88.48-.8.6-.72.73-.6.8-.5.88-.37.9-.23.95-.07h9.87" stroke="#1071e5" stroke-width="2" fill="none"/><use xlink:href="#d" transform="matrix(1,0,0,1,2173.333533333327,1502) translate(22.413580246913575 38.77777777777778)"/><use xlink:href="#e" transform="matrix(1,0,0,1,2173.333533333327,1502) translate(32.19753086419753 65.44444444444446)"/><use xlink:href="#f" transform="matrix(1,0,0,1,2173.333533333327,1502) translate(88.98765432098764 65.44444444444446)"/><path d="M2398 1517.33a6 6 0 0 1 6-6h88a6 6 0 0 1 6 6v65.34a6 6 0 0 1-6 6h-88a6 6 0 0 1-6-6z" stroke="#282c33" stroke-width="2" fill="#fff"/><use xlink:href="#g" transform="matrix(1,0,0,1,2410.0001999999945,1523.3333333333333) translate(-2.1234567901234556 18.111111111111114)"/><use xlink:href="#b" transform="matrix(1,0,0,1,2410.0001999999945,1523.3333333333333) translate(10.253086419753089 44.777777777777786)"/><path d="M2560 1496a6 6 0 0 1 6-6h148a6 6 0 0 1 6 6v108a6 6 0 0 1-6 6h-148a6 6 0 0 1-6-6z" fill="#fff"/><path d="M2585.73 1490h19.74m9.86 0h19.74m9.86 0h19.74m9.86 0h19.74m9.86 0h9.87l.94.07.9.22.88.35.8.5.72.6.6.72.5.8.37.88.23.9.07.95v9m0 9v18m0 9v18m0 9v18m0 9v9l-.07.94-.22.9-.35.88-.5.8-.6.72-.72.6-.8.5-.88.37-.9.23-.95.07h-9.87m-9.86 0h-19.74m-9.86 0h-19.74m-9.86 0h-19.74m-9.86 0h-19.74m-9.86 0H2566l-.94-.07-.9-.22-.88-.35-.8-.5-.72-.6-.6-.72-.5-.8-.37-.88-.23-.9-.07-.95v-9m0-9v-18m0-9v-18m0-9v-18m0-9v-9l.07-.94.22-.9.35-.88.5-.8.6-.72.72-.6.8-.5.88-.37.9-.23.95-.07h9.87" stroke="#1071e5" stroke-width="2" fill="none"/><use xlink:href="#h" transform="matrix(1,0,0,1,2572,1502.0000000000002) translate(14.975308641975303 38.77777777777778)"/><use xlink:href="#e" transform="matrix(1,0,0,1,2572,1502.0000000000002) translate(32.19753086419753 65.44444444444446)"/><use xlink:href="#i" transform="matrix(1,0,0,1,2572,1502.0000000000002) translate(88.98765432098764 65.44444444444446)"/><path d="M2070.17 1550h4.98m4.98 0h9.96m4.97 0h9.97m4.98 0h9.25m4.28 0h8.54m4.27 0h8.54m4.3 0h4.26" stroke="#3a414a" fill="none"/><path d="M2070.18 1550.47h-.5v-.94h.5z" stroke="#3a414a" stroke-width=".05" fill="#3a414a"/><path d="M2159.35 1550l-12.9 7.64v-15.28z" stroke="#3a414a" fill="#3a414a"/><path d="M2322.83 1550h67.3" stroke="#3a414a" fill="none"/><path d="M2322.85 1550.47h-.52v-.94h.52z" stroke="#3a414a" stroke-width=".05" fill="#3a414a"/><path d="M2396.02 1550l-12.9 7.64v-15.28z" stroke="#3a414a" fill="#3a414a"/><path d="M2499.5 1550h4.4m4.37 0h8.77m4.4 0h8.76m4.4 0h8.76m4.38 0h4.4" stroke="#3a414a" fill="none"/><path d="M2499.5 1550.47h-.5v-.94h.5z" stroke="#3a414a" stroke-width=".05" fill="#3a414a"/><path d="M2558.02 1550l-12.9 7.64v-15.28z" stroke="#3a414a" fill="#3a414a"/><path d="M2070.17 1550h3.97m3.97 0h7.96m3.97 0h3.97l.94-.07.9-.22.88-.35.8-.5.72-.6.6-.72.5-.8.37-.88.23-.9.07-.95v-4.9m0-4.88v-9.78m0-4.88v-9.78m0-4.9v-9.77m0-4.88v-9.78m0-4.88v-9.78m0-4.9V1456l.07-.94.22-.9.35-.88.5-.8.6-.72.72-.6.8-.5.88-.37.9-.23.95-.07h5.1m5.08 0h10.18m5.1 0h10.18m5.1 0h10.17m5.1 0h10.18m5.1 0h10.17m5.1 0h10.18m5.1 0H2218m5.1 0h10.17m5.1 0h10.18m5.1 0h10.17m5.1 0h10.17m5.08 0h10.18m5.1 0h10.18m5.1 0h10.17m5.1 0h10.18m5.1 0h10.17m5.1 0h10.18m5.1 0H2386m5.1 0h10.17m5.1 0h10.18m5.1 0h10.17m5.1 0h5.08l.94.07.9.22.88.35.8.5.72.6.6.72.5.8.37.88.23.9.07.95v5.27m0 5.28v10.54m0 5.27v10.54m0 5.3v5.26" stroke="#3a414a" fill="none"/><path d="M2070.18 1550.47h-.5v-.94h.5z" stroke="#3a414a" stroke-width=".05" fill="#3a414a"/><path d="M2448 1509.35l-7.64-12.9h15.28z" stroke="#3a414a" fill="#3a414a"/><path d="M1960.8 1550h-80.3" stroke="#3a414a" fill="none"/><path d="M1966.68 1550l-12.9 7.64v-15.28z" stroke="#3a414a" fill="#3a414a"/><path d="M1880.5 1550h-.5" stroke="#3a414a" fill="none"/><defs><path fill="#3a414a" d="M33 0v-248h34V0H33" id="j"/><path fill="#3a414a" d="M117-194c89-4 53 116 60 194h-32v-121c0-31-8-49-39-48C34-167 62-67 57 0H25l-1-190h30c1 10-1 24 2 32 11-22 29-35 61-36" id="k"/><path fill="#3a414a" d="M59-47c-2 24 18 29 38 22v24C64 9 27 4 27-40v-127H5v-23h24l9-43h21v43h35v23H59v120" id="l"/><path fill="#3a414a" d="M100-194c63 0 86 42 84 106H49c0 40 14 67 53 68 26 1 43-12 49-29l28 8c-11 28-37 45-77 45C44 4 14-33 15-96c1-61 26-98 85-98zm52 81c6-60-76-77-97-28-3 7-6 17-6 28h103" id="m"/><g id="a"><use transform="matrix(0.06172839506172839,0,0,0.06172839506172839,0,0)" xlink:href="#j"/><use transform="matrix(0.06172839506172839,0,0,0.06172839506172839,6.172839506172839,0)" xlink:href="#k"/><use transform="matrix(0.06172839506172839,0,0,0.06172839506172839,18.51851851851852,0)" xlink:href="#l"/><use transform="matrix(0.06172839506172839,0,0,0.06172839506172839,24.691358024691358,0)" xlink:href="#m"/><use transform="matrix(0.06172839506172839,0,0,0.06172839506172839,37.03703703703704,0)" xlink:href="#k"/><use transform="matrix(0.06172839506172839,0,0,0.06172839506172839,49.382716049382715,0)" xlink:href="#l"/></g><path fill="#3a414a" d="M185-189c-5-48-123-54-124 2 14 75 158 14 163 119 3 78-121 87-175 55-17-10-28-26-33-46l33-7c5 56 141 63 141-1 0-78-155-14-162-118-5-82 145-84 179-34 5 7 8 16 11 25" id="n"/><path fill="#3a414a" d="M206 0h-36l-40-164L89 0H53L-1-190h32L70-26l43-164h34l41 164 42-164h31" id="o"/><path fill="#3a414a" d="M141-36C126-15 110 5 73 4 37 3 15-17 15-53c-1-64 63-63 125-63 3-35-9-54-41-54-24 1-41 7-42 31l-33-3c5-37 33-52 76-52 45 0 72 20 72 64v82c-1 20 7 32 28 27v20c-31 9-61-2-59-35zM48-53c0 20 12 33 32 33 41-3 63-29 60-74-43 2-92-5-92 41" id="p"/><path fill="#3a414a" d="M115-194c55 1 70 41 70 98S169 2 115 4C84 4 66-9 55-30l1 105H24l-1-265h31l2 30c10-21 28-34 59-34zm-8 174c40 0 45-34 45-75s-6-73-45-74c-42 0-51 32-51 76 0 43 10 73 51 73" id="q"/><g id="b"><use transform="matrix(0.06172839506172839,0,0,0.06172839506172839,0,0)" xlink:href="#n"/><use transform="matrix(0.06172839506172839,0,0,0.06172839506172839,14.814814814814813,0)" xlink:href="#o"/><use transform="matrix(0.06172839506172839,0,0,0.06172839506172839,30.80246913580247,0)" xlink:href="#p"/><use transform="matrix(0.06172839506172839,0,0,0.06172839506172839,43.148148148148145,0)" xlink:href="#q"/></g><path d="M127-220V0H93v-220H8v-28h204v28h-85" id="r"/><path d="M114-163C36-179 61-72 57 0H25l-1-190h30c1 12-1 29 2 39 6-27 23-49 58-41v29" id="s"/><path d="M141-36C126-15 110 5 73 4 37 3 15-17 15-53c-1-64 63-63 125-63 3-35-9-54-41-54-24 1-41 7-42 31l-33-3c5-37 33-52 76-52 45 0 72 20 72 64v82c-1 20 7 32 28 27v20c-31 9-61-2-59-35zM48-53c0 20 12 33 32 33 41-3 63-29 60-74-43 2-92-5-92 41" id="t"/><path d="M85-194c31 0 48 13 60 33l-1-100h32l1 261h-30c-2-10 0-23-3-31C134-8 116 4 85 4 32 4 16-35 15-94c0-66 23-100 70-100zm9 24c-40 0-46 34-46 75 0 40 6 74 45 74 42 0 51-32 51-76 0-42-9-74-50-73" id="u"/><path d="M100-194c63 0 86 42 84 106H49c0 40 14 67 53 68 26 1 43-12 49-29l28 8c-11 28-37 45-77 45C44 4 14-33 15-96c1-61 26-98 85-98zm52 81c6-60-76-77-97-28-3 7-6 17-6 28h103" id="v"/><g id="c"><use transform="matrix(0.05,0,0,0.05,0,0)" xlink:href="#r"/><use transform="matrix(0.05,0,0,0.05,10.3,0)" xlink:href="#s"/><use transform="matrix(0.05,0,0,0.05,16.25,0)" xlink:href="#t"/><use transform="matrix(0.05,0,0,0.05,26.25,0)" xlink:href="#u"/><use transform="matrix(0.05,0,0,0.05,36.25,0)" xlink:href="#v"/><use transform="matrix(0.05,0,0,0.05,46.25,0)" xlink:href="#s"/></g><path fill="#3a414a" d="M30-248c87 1 191-15 191 75 0 78-77 80-158 76V0H30v-248zm33 125c57 0 124 11 124-50 0-59-68-47-124-48v98" id="w"/><path fill="#3a414a" d="M114-163C36-179 61-72 57 0H25l-1-190h30c1 12-1 29 2 39 6-27 23-49 58-41v29" id="x"/><path fill="#3a414a" d="M100-194c62-1 85 37 85 99 1 63-27 99-86 99S16-35 15-95c0-66 28-99 85-99zM99-20c44 1 53-31 53-75 0-43-8-75-51-75s-53 32-53 75 10 74 51 75" id="y"/><path fill="#3a414a" d="M108 0H70L1-190h34L89-25l56-165h34" id="z"/><path fill="#3a414a" d="M24-231v-30h32v30H24zM24 0v-190h32V0H24" id="A"/><path fill="#3a414a" d="M135-143c-3-34-86-38-87 0 15 53 115 12 119 90S17 21 10-45l28-5c4 36 97 45 98 0-10-56-113-15-118-90-4-57 82-63 122-42 12 7 21 19 24 35" id="B"/><g id="d"><use transform="matrix(0.06172839506172839,0,0,0.06172839506172839,0,0)" xlink:href="#w"/><use transform="matrix(0.06172839506172839,0,0,0.06172839506172839,14.814814814814813,0)" xlink:href="#x"/><use transform="matrix(0.06172839506172839,0,0,0.06172839506172839,22.160493827160494,0)" xlink:href="#y"/><use transform="matrix(0.06172839506172839,0,0,0.06172839506172839,34.50617283950617,0)" xlink:href="#z"/><use transform="matrix(0.06172839506172839,0,0,0.06172839506172839,45.61728395061728,0)" xlink:href="#A"/><use transform="matrix(0.06172839506172839,0,0,0.06172839506172839,50.49382716049382,0)" xlink:href="#B"/><use transform="matrix(0.06172839506172839,0,0,0.06172839506172839,61.60493827160494,0)" xlink:href="#A"/><use transform="matrix(0.06172839506172839,0,0,0.06172839506172839,66.48148148148148,0)" xlink:href="#y"/><use transform="matrix(0.06172839506172839,0,0,0.06172839506172839,78.82716049382717,0)" xlink:href="#k"/></g><path fill="#3a414a" d="M160-131c35 5 61 23 61 61C221 17 115-2 30 0v-248c76 3 177-17 177 60 0 33-19 50-47 57zm-97-11c50-1 110 9 110-42 0-47-63-36-110-37v79zm0 115c55-2 124 14 124-45 0-56-70-42-124-44v89" id="C"/><path fill="#3a414a" d="M143 0L79-87 56-68V0H24v-261h32v163l83-92h37l-77 82L181 0h-38" id="D"/><g id="e"><use transform="matrix(0.06172839506172839,0,0,0.06172839506172839,0,0)" xlink:href="#C"/><use transform="matrix(0.06172839506172839,0,0,0.06172839506172839,14.814814814814813,0)" xlink:href="#p"/><use transform="matrix(0.06172839506172839,0,0,0.06172839506172839,27.160493827160494,0)" xlink:href="#k"/><use transform="matrix(0.06172839506172839,0,0,0.06172839506172839,39.50617283950617,0)" xlink:href="#D"/></g><path fill="#3a414a" d="M205 0l-28-72H64L36 0H1l101-248h38L239 0h-34zm-38-99l-47-123c-12 45-31 82-46 123h93" id="E"/><use transform="matrix(0.06172839506172839,0,0,0.06172839506172839,0,0)" xlink:href="#E" id="f"/><path fill="#3a414a" d="M30 0v-248h187v28H63v79h144v27H63v87h162V0H30" id="F"/><path fill="#3a414a" d="M141 0L90-78 38 0H4l68-98-65-92h35l48 74 47-74h35l-64 92 68 98h-35" id="G"/><path fill="#3a414a" d="M96-169c-40 0-48 33-48 73s9 75 48 75c24 0 41-14 43-38l32 2c-6 37-31 61-74 61-59 0-76-41-82-99-10-93 101-131 147-64 4 7 5 14 7 22l-32 3c-4-21-16-35-41-35" id="H"/><path fill="#3a414a" d="M84 4C-5 8 30-112 23-190h32v120c0 31 7 50 39 49 72-2 45-101 50-169h31l1 190h-30c-1-10 1-25-2-33-11 22-28 36-60 37" id="I"/><g id="g"><use transform="matrix(0.06172839506172839,0,0,0.06172839506172839,0,0)" xlink:href="#F"/><use transform="matrix(0.06172839506172839,0,0,0.06172839506172839,14.814814814814813,0)" xlink:href="#G"/><use transform="matrix(0.06172839506172839,0,0,0.06172839506172839,25.925925925925924,0)" xlink:href="#m"/><use transform="matrix(0.06172839506172839,0,0,0.06172839506172839,38.2716049382716,0)" xlink:href="#H"/><use transform="matrix(0.06172839506172839,0,0,0.06172839506172839,49.38271604938271,0)" xlink:href="#I"/><use transform="matrix(0.06172839506172839,0,0,0.06172839506172839,61.728395061728385,0)" xlink:href="#l"/><use transform="matrix(0.06172839506172839,0,0,0.06172839506172839,67.90123456790123,0)" xlink:href="#m"/></g><path fill="#3a414a" d="M233-177c-1 41-23 64-60 70L243 0h-38l-65-103H63V0H30v-248c88 3 205-21 203 71zM63-129c60-2 137 13 137-47 0-61-80-42-137-45v92" id="J"/><path fill="#3a414a" d="M115-194c53 0 69 39 70 98 0 66-23 100-70 100C84 3 66-7 56-30L54 0H23l1-261h32v101c10-23 28-34 59-34zm-8 174c40 0 45-34 45-75 0-40-5-75-45-74-42 0-51 32-51 76 0 43 10 73 51 73" id="K"/><path fill="#3a414a" d="M24 0v-261h32V0H24" id="L"/><g id="h"><use transform="matrix(0.06172839506172839,0,0,0.06172839506172839,0,0)" xlink:href="#J"/><use transform="matrix(0.06172839506172839,0,0,0.06172839506172839,15.987654320987653,0)" xlink:href="#m"/><use transform="matrix(0.06172839506172839,0,0,0.06172839506172839,28.333333333333332,0)" xlink:href="#K"/><use transform="matrix(0.06172839506172839,0,0,0.06172839506172839,40.67901234567901,0)" xlink:href="#p"/><use transform="matrix(0.06172839506172839,0,0,0.06172839506172839,53.02469135802469,0)" xlink:href="#L"/><use transform="matrix(0.06172839506172839,0,0,0.06172839506172839,57.901234567901234,0)" xlink:href="#p"/><use transform="matrix(0.06172839506172839,0,0,0.06172839506172839,70.24691358024691,0)" xlink:href="#k"/><use transform="matrix(0.06172839506172839,0,0,0.06172839506172839,82.5925925925926,0)" xlink:href="#H"/><use transform="matrix(0.06172839506172839,0,0,0.06172839506172839,93.70370370370371,0)" xlink:href="#m"/></g><use transform="matrix(0.06172839506172839,0,0,0.06172839506172839,0,0)" xlink:href="#C" id="i"/></defs></g></svg>