<svg width="386" height="255" viewBox="0 0 386 255" fill="none" xmlns="http://www.w3.org/2000/svg">
<rect x="68" y="56" width="311" height="117" fill="#0084FF" fill-opacity="0.18"/>
<rect x="50" y="235" width="2" height="329" transform="rotate(-90 50 235)" fill="black"/>
<rect x="67" y="58" width="1.99999" height="312" transform="rotate(-90 67 58)" fill="#0984E9"/>
<rect x="67" y="175" width="1.99999" height="312" transform="rotate(-90 67 175)" fill="#0984E9"/>
<rect x="67.5" y="115.5" width="0.999993" height="311" transform="rotate(-90 67.5 115.5)" stroke="#0984E9" stroke-width="0.999993" stroke-dasharray="2 2"/>
<path d="M67.5 114.5L110.5 86L130 97.5L149.5 83L160 57V114L175 104.5L187 125.5L204 107.5L224.5 146L252 150.5L255.5 167L265 173V116L283 125.5L295.5 146L329 101L353.5 129.5L379 107" stroke="#0A433B" stroke-width="2"/>
<circle cx="160" cy="56" r="4" fill="#1AC500" fill-opacity="0.6"/>
<circle cx="265" cy="175" r="4" fill="#C53400" fill-opacity="0.6"/>
<path d="M160 50L165.774 40H154.226L160 50ZM159 10V11.4286H161V10H159ZM159 14.2857V17.1429H161V14.2857H159ZM159 20V22.8571H161V20H159ZM159 25.7143V28.5714H161V25.7143H159ZM159 31.4286V34.2857H161V31.4286H159ZM159 37.1429V40H161V37.1429H159ZM159 42.8571V45.7143H161V42.8571H159ZM160 50L165.774 40H154.226L160 50ZM159 10V11.4286H161V10H159ZM159 14.2857V17.1429H161V14.2857H159ZM159 20V22.8571H161V20H159ZM159 25.7143V28.5714H161V25.7143H159ZM159 31.4286V34.2857H161V31.4286H159ZM159 37.1429V40H161V37.1429H159ZM159 42.8571V45.7143H161V42.8571H159Z" fill="#1AC500" fill-opacity="0.6"/>
<path d="M265 179L259.226 189L270.774 189L265 179ZM266 219L266 217.571L264 217.571L264 219L266 219ZM266 214.714L266 211.857L264 211.857L264 214.714L266 214.714ZM266 209L266 206.143L264 206.143L264 209L266 209ZM266 203.286L266 200.429L264 200.429L264 203.286L266 203.286ZM266 197.571L266 194.714L264 194.714L264 197.571L266 197.571ZM266 191.857L266 189L264 189L264 191.857L266 191.857ZM266 186.143L266 183.286L264 183.286L264 186.143L266 186.143ZM265 179L259.226 189L270.774 189L265 179ZM266 219L266 217.571L264 217.571L264 219L266 219ZM266 214.714L266 211.857L264 211.857L264 214.714L266 214.714ZM266 209L266 206.143L264 206.143L264 209L266 209ZM266 203.286L266 200.429L264 200.429L264 203.286L266 203.286ZM266 197.571L266 194.714L264 194.714L264 197.571L266 197.571ZM266 191.857L266 189L264 189L264 191.857L266 191.857ZM266 186.143L266 183.286L264 183.286L264 186.143L266 186.143Z" fill="#C53400" fill-opacity="0.6"/>
<rect x="67" y="7" width="2" height="245" fill="black"/>
<path d="M279.861 213V204.273H283.134C283.804 204.273 284.366 204.389 284.821 204.622C285.278 204.855 285.624 205.182 285.857 205.602C286.092 206.02 286.21 206.507 286.21 207.064C286.21 207.624 286.091 208.109 285.852 208.521C285.616 208.93 285.268 209.247 284.808 209.472C284.348 209.693 283.783 209.804 283.112 209.804H280.781V208.491H282.899C283.291 208.491 283.612 208.437 283.862 208.33C284.112 208.219 284.297 208.058 284.416 207.848C284.538 207.635 284.599 207.374 284.599 207.064C284.599 206.754 284.538 206.49 284.416 206.271C284.294 206.05 284.108 205.882 283.858 205.768C283.608 205.652 283.286 205.594 282.891 205.594H281.442V213H279.861ZM284.369 209.045L286.53 213H284.766L282.643 209.045H284.369ZM290.401 213.128C289.745 213.128 289.178 212.991 288.701 212.719C288.227 212.443 287.862 212.054 287.606 211.551C287.35 211.045 287.222 210.45 287.222 209.766C287.222 209.092 287.35 208.501 287.606 207.993C287.864 207.482 288.225 207.084 288.688 206.8C289.151 206.513 289.695 206.369 290.32 206.369C290.724 206.369 291.104 206.435 291.462 206.565C291.823 206.693 292.141 206.892 292.417 207.162C292.695 207.432 292.914 207.776 293.073 208.193C293.232 208.608 293.312 209.102 293.312 209.676V210.149H287.947V209.109H291.833C291.83 208.814 291.766 208.551 291.641 208.321C291.516 208.088 291.342 207.905 291.117 207.771C290.896 207.638 290.637 207.571 290.342 207.571C290.026 207.571 289.749 207.648 289.511 207.801C289.272 207.952 289.086 208.151 288.952 208.398C288.822 208.642 288.755 208.911 288.752 209.203V210.111C288.752 210.491 288.822 210.818 288.961 211.091C289.1 211.361 289.295 211.568 289.545 211.713C289.795 211.855 290.087 211.926 290.423 211.926C290.647 211.926 290.85 211.895 291.032 211.832C291.214 211.767 291.371 211.672 291.505 211.547C291.638 211.422 291.739 211.267 291.808 211.082L293.248 211.244C293.157 211.625 292.984 211.957 292.728 212.241C292.475 212.523 292.151 212.741 291.756 212.898C291.362 213.051 290.91 213.128 290.401 213.128ZM297.472 213.128C296.819 213.128 296.257 212.984 295.789 212.697C295.323 212.411 294.963 212.014 294.711 211.509C294.461 211 294.336 210.415 294.336 209.753C294.336 209.088 294.463 208.501 294.719 207.993C294.975 207.482 295.336 207.084 295.801 206.8C296.27 206.513 296.824 206.369 297.463 206.369C297.995 206.369 298.465 206.467 298.874 206.663C299.286 206.857 299.614 207.131 299.858 207.486C300.103 207.838 300.242 208.25 300.276 208.722H298.801C298.742 208.406 298.6 208.143 298.375 207.933C298.154 207.72 297.857 207.614 297.485 207.614C297.169 207.614 296.892 207.699 296.654 207.869C296.415 208.037 296.229 208.278 296.096 208.594C295.965 208.909 295.9 209.287 295.9 209.727C295.9 210.173 295.965 210.557 296.096 210.878C296.226 211.196 296.409 211.442 296.645 211.615C296.884 211.786 297.164 211.871 297.485 211.871C297.712 211.871 297.915 211.828 298.094 211.743C298.276 211.655 298.428 211.528 298.55 211.364C298.672 211.199 298.756 210.999 298.801 210.763H300.276C300.239 211.226 300.103 211.636 299.867 211.994C299.631 212.349 299.31 212.628 298.904 212.83C298.498 213.028 298.02 213.128 297.472 213.128ZM303.426 213.132C303.011 213.132 302.638 213.058 302.305 212.911C301.976 212.76 301.714 212.538 301.521 212.246C301.331 211.953 301.236 211.592 301.236 211.163C301.236 210.794 301.304 210.489 301.44 210.247C301.577 210.006 301.763 209.812 301.999 209.668C302.234 209.523 302.5 209.413 302.795 209.339C303.094 209.263 303.402 209.207 303.72 209.173C304.104 209.134 304.415 209.098 304.653 209.067C304.892 209.033 305.065 208.982 305.173 208.913C305.284 208.842 305.339 208.733 305.339 208.585V208.56C305.339 208.239 305.244 207.99 305.054 207.814C304.864 207.638 304.589 207.55 304.232 207.55C303.854 207.55 303.554 207.632 303.332 207.797C303.114 207.962 302.966 208.156 302.889 208.381L301.449 208.176C301.563 207.778 301.75 207.446 302.011 207.179C302.273 206.909 302.592 206.707 302.97 206.574C303.348 206.438 303.766 206.369 304.223 206.369C304.538 206.369 304.852 206.406 305.165 206.48C305.477 206.554 305.763 206.676 306.021 206.847C306.28 207.014 306.487 207.243 306.643 207.533C306.803 207.822 306.882 208.185 306.882 208.619V213H305.399V212.101H305.348C305.254 212.283 305.122 212.453 304.952 212.612C304.784 212.768 304.572 212.895 304.317 212.991C304.064 213.085 303.767 213.132 303.426 213.132ZM303.827 211.999C304.136 211.999 304.405 211.937 304.632 211.815C304.859 211.69 305.034 211.526 305.156 211.321C305.281 211.116 305.344 210.893 305.344 210.652V209.881C305.295 209.92 305.213 209.957 305.097 209.991C304.983 210.026 304.855 210.055 304.713 210.081C304.571 210.107 304.43 210.129 304.291 210.149C304.152 210.169 304.031 210.186 303.929 210.2C303.699 210.232 303.493 210.283 303.311 210.354C303.129 210.425 302.986 210.524 302.881 210.652C302.776 210.777 302.723 210.939 302.723 211.138C302.723 211.422 302.827 211.636 303.034 211.781C303.241 211.926 303.506 211.999 303.827 211.999ZM309.976 204.273V213H308.433V204.273H309.976ZM313.105 204.273V213H311.562V204.273H313.105Z" fill="#C53400" fill-opacity="0.6"/>
<path d="M171.818 35H168.861V26.2727H171.878C172.744 26.2727 173.489 26.4474 174.111 26.7969C174.736 27.1435 175.216 27.642 175.551 28.2926C175.886 28.9432 176.054 29.7216 176.054 30.6278C176.054 31.5369 175.885 32.3182 175.547 32.9716C175.212 33.625 174.727 34.1264 174.094 34.4759C173.463 34.8253 172.705 35 171.818 35ZM170.442 33.6321H171.741C172.349 33.6321 172.857 33.5213 173.263 33.2997C173.669 33.0753 173.974 32.7415 174.179 32.2983C174.384 31.8523 174.486 31.2955 174.486 30.6278C174.486 29.9602 174.384 29.4062 174.179 28.9659C173.974 28.5227 173.672 28.1918 173.271 27.973C172.874 27.7514 172.379 27.6406 171.788 27.6406H170.442V33.6321ZM180.386 35.1278C179.729 35.1278 179.163 34.9915 178.685 34.7188C178.211 34.4432 177.846 34.054 177.59 33.5511C177.335 33.0455 177.207 32.4503 177.207 31.7656C177.207 31.0923 177.335 30.5014 177.59 29.9929C177.849 29.4815 178.21 29.0838 178.673 28.7997C179.136 28.5128 179.68 28.3693 180.305 28.3693C180.708 28.3693 181.089 28.4347 181.447 28.5653C181.808 28.6932 182.126 28.892 182.401 29.1619C182.68 29.4318 182.898 29.7756 183.058 30.1932C183.217 30.608 183.296 31.1023 183.296 31.6761V32.1491H177.931V31.1094H181.817C181.815 30.8139 181.751 30.5511 181.626 30.321C181.501 30.0881 181.326 29.9048 181.102 29.7713C180.88 29.6378 180.621 29.571 180.326 29.571C180.011 29.571 179.734 29.6477 179.495 29.8011C179.256 29.9517 179.07 30.1506 178.937 30.3977C178.806 30.642 178.739 30.9105 178.737 31.2031V32.1108C178.737 32.4915 178.806 32.8182 178.945 33.0909C179.085 33.3608 179.279 33.5682 179.529 33.7131C179.779 33.8551 180.072 33.9261 180.407 33.9261C180.631 33.9261 180.835 33.8949 181.016 33.8324C181.198 33.767 181.356 33.6719 181.489 33.5469C181.623 33.4219 181.724 33.267 181.792 33.0824L183.232 33.2443C183.141 33.625 182.968 33.9574 182.712 34.2415C182.46 34.5227 182.136 34.7415 181.741 34.8977C181.346 35.0511 180.894 35.1278 180.386 35.1278ZM184.601 37.4545V28.4545H186.118V29.5369H186.208C186.287 29.3778 186.4 29.2088 186.544 29.0298C186.689 28.848 186.885 28.6932 187.132 28.5653C187.38 28.4347 187.695 28.3693 188.078 28.3693C188.584 28.3693 189.04 28.4986 189.446 28.7571C189.855 29.0128 190.179 29.392 190.418 29.8949C190.659 30.3949 190.78 31.0085 190.78 31.7358C190.78 32.4545 190.662 33.0653 190.426 33.5682C190.191 34.071 189.87 34.4545 189.463 34.7188C189.057 34.983 188.597 35.1151 188.083 35.1151C187.708 35.1151 187.397 35.0526 187.15 34.9276C186.902 34.8026 186.703 34.652 186.553 34.4759C186.405 34.2969 186.29 34.1278 186.208 33.9688H186.144V37.4545H184.601ZM186.114 31.7273C186.114 32.1506 186.174 32.5213 186.293 32.8395C186.415 33.1577 186.59 33.4062 186.817 33.5852C187.047 33.7614 187.326 33.8494 187.652 33.8494C187.993 33.8494 188.279 33.7585 188.509 33.5767C188.739 33.392 188.912 33.1406 189.029 32.8224C189.148 32.5014 189.208 32.1364 189.208 31.7273C189.208 31.321 189.15 30.9602 189.033 30.6449C188.917 30.3295 188.743 30.0824 188.513 29.9034C188.283 29.7244 187.996 29.6349 187.652 29.6349C187.323 29.6349 187.043 29.7216 186.813 29.8949C186.583 30.0682 186.408 30.3111 186.289 30.6236C186.172 30.9361 186.114 31.304 186.114 31.7273ZM193.644 26.2727V35H192.101V26.2727H193.644ZM198.085 35.1278C197.446 35.1278 196.892 34.9872 196.423 34.706C195.955 34.4247 195.591 34.0312 195.332 33.5256C195.077 33.0199 194.949 32.429 194.949 31.7528C194.949 31.0767 195.077 30.4844 195.332 29.9759C195.591 29.4673 195.955 29.0724 196.423 28.7912C196.892 28.5099 197.446 28.3693 198.085 28.3693C198.724 28.3693 199.278 28.5099 199.747 28.7912C200.216 29.0724 200.578 29.4673 200.834 29.9759C201.092 30.4844 201.222 31.0767 201.222 31.7528C201.222 32.429 201.092 33.0199 200.834 33.5256C200.578 34.0312 200.216 34.4247 199.747 34.706C199.278 34.9872 198.724 35.1278 198.085 35.1278ZM198.094 33.892C198.44 33.892 198.73 33.7969 198.963 33.6065C199.196 33.4134 199.369 33.1548 199.483 32.831C199.599 32.5071 199.658 32.1463 199.658 31.7486C199.658 31.348 199.599 30.9858 199.483 30.6619C199.369 30.3352 199.196 30.0753 198.963 29.8821C198.73 29.6889 198.44 29.5923 198.094 29.5923C197.739 29.5923 197.443 29.6889 197.207 29.8821C196.974 30.0753 196.8 30.3352 196.683 30.6619C196.57 30.9858 196.513 31.348 196.513 31.7486C196.513 32.1463 196.57 32.5071 196.683 32.831C196.8 33.1548 196.974 33.4134 197.207 33.6065C197.443 33.7969 197.739 33.892 198.094 33.892ZM203.267 37.4545C203.057 37.4545 202.862 37.4375 202.683 37.4034C202.507 37.3722 202.366 37.3352 202.261 37.2926L202.619 36.0909C202.844 36.1563 203.044 36.1875 203.22 36.1847C203.396 36.1818 203.551 36.1264 203.685 36.0185C203.821 35.9134 203.936 35.7372 204.03 35.4901L204.162 35.1364L201.788 28.4545H203.425L204.933 33.3977H205.001L206.514 28.4545H208.155L205.534 35.7926C205.412 36.1392 205.25 36.4361 205.048 36.6832C204.847 36.9332 204.599 37.1236 204.307 37.2543C204.017 37.3878 203.67 37.4545 203.267 37.4545Z" fill="#1AC500" fill-opacity="0.6"/>
<path d="M6.6005 18.2727H8.18146V23.9744C8.18146 24.5994 8.03374 25.1491 7.73828 25.6236C7.44567 26.098 7.03374 26.4687 6.50249 26.7358C5.97124 27 5.3505 27.1321 4.64027 27.1321C3.9272 27.1321 3.30504 27 2.77379 26.7358C2.24254 26.4687 1.83061 26.098 1.538 25.6236C1.24538 25.1491 1.09908 24.5994 1.09908 23.9744V18.2727H2.68004V23.8423C2.68004 24.206 2.75959 24.5298 2.91868 24.8139C3.08061 25.098 3.30788 25.321 3.6005 25.483C3.89311 25.642 4.2397 25.7216 4.64027 25.7216C5.04084 25.7216 5.38743 25.642 5.68004 25.483C5.9755 25.321 6.20277 25.098 6.36186 24.8139C6.52095 24.5298 6.6005 24.206 6.6005 23.8423V18.2727ZM13.1001 20.4545V21.6477H9.33736V20.4545H13.1001ZM10.2663 18.8864H11.8089V25.0312C11.8089 25.2386 11.8402 25.3977 11.9027 25.5085C11.968 25.6165 12.0533 25.6903 12.1584 25.7301C12.2635 25.7699 12.38 25.7898 12.5078 25.7898C12.6044 25.7898 12.6925 25.7827 12.772 25.7685C12.8544 25.7543 12.9169 25.7415 12.9595 25.7301L13.2195 26.9361C13.1371 26.9645 13.0192 26.9957 12.8658 27.0298C12.7152 27.0639 12.5305 27.0838 12.3118 27.0895C11.9254 27.1009 11.5774 27.0426 11.2678 26.9148C10.9581 26.7841 10.7124 26.5824 10.5305 26.3097C10.3516 26.0369 10.2635 25.696 10.2663 25.2869V18.8864ZM14.3903 27V20.4545H15.9329V27H14.3903ZM15.1658 19.5256C14.9215 19.5256 14.7113 19.4446 14.5352 19.2827C14.359 19.1179 14.271 18.9205 14.271 18.6903C14.271 18.4574 14.359 18.2599 14.5352 18.098C14.7113 17.9332 14.9215 17.8509 15.1658 17.8509C15.413 17.8509 15.6232 17.9332 15.7965 18.098C15.9727 18.2599 16.0607 18.4574 16.0607 18.6903C16.0607 18.9205 15.9727 19.1179 15.7965 19.2827C15.6232 19.4446 15.413 19.5256 15.1658 19.5256ZM19.0618 18.2727V27H17.5192V18.2727H19.0618ZM20.6481 27V20.4545H22.1907V27H20.6481ZM21.4237 19.5256C21.1793 19.5256 20.9691 19.4446 20.793 19.2827C20.6168 19.1179 20.5288 18.9205 20.5288 18.6903C20.5288 18.4574 20.6168 18.2599 20.793 18.098C20.9691 17.9332 21.1793 17.8509 21.4237 17.8509C21.6708 17.8509 21.881 17.9332 22.0543 18.098C22.2305 18.2599 22.3185 18.4574 22.3185 18.6903C22.3185 18.9205 22.2305 19.1179 22.0543 19.2827C21.881 19.4446 21.6708 19.5256 21.4237 19.5256ZM28.9503 22.1847L27.544 22.3381C27.5043 22.196 27.4347 22.0625 27.3352 21.9375C27.2386 21.8125 27.108 21.7116 26.9432 21.6349C26.7784 21.5582 26.5767 21.5199 26.3381 21.5199C26.017 21.5199 25.7472 21.5895 25.5284 21.7287C25.3125 21.8679 25.206 22.0483 25.2088 22.2699C25.206 22.4602 25.2756 22.6151 25.4176 22.7344C25.5625 22.8537 25.8011 22.9517 26.1335 23.0284L27.25 23.267C27.8693 23.4006 28.3295 23.6122 28.6307 23.902C28.9347 24.1918 29.0881 24.571 29.0909 25.0398C29.0881 25.4517 28.9673 25.8153 28.7287 26.1307C28.4929 26.4432 28.1648 26.6875 27.7443 26.8636C27.3239 27.0398 26.8409 27.1278 26.2955 27.1278C25.4943 27.1278 24.8494 26.9602 24.3608 26.625C23.8722 26.2869 23.581 25.8168 23.4872 25.2145L24.9915 25.0696C25.0597 25.3651 25.2045 25.5881 25.4261 25.7386C25.6477 25.8892 25.9361 25.9645 26.2912 25.9645C26.6577 25.9645 26.9517 25.8892 27.1733 25.7386C27.3977 25.5881 27.5099 25.402 27.5099 25.1804C27.5099 24.9929 27.4375 24.8381 27.2926 24.7159C27.1506 24.5937 26.929 24.5 26.6278 24.4347L25.5114 24.2003C24.8835 24.0696 24.419 23.8494 24.1179 23.5398C23.8168 23.2273 23.6676 22.8324 23.6705 22.3551C23.6676 21.9517 23.777 21.6023 23.9986 21.3068C24.223 21.0085 24.5341 20.7784 24.9318 20.6165C25.3324 20.4517 25.794 20.3693 26.3168 20.3693C27.0838 20.3693 27.6875 20.5327 28.1278 20.8594C28.571 21.1861 28.8452 21.6278 28.9503 22.1847ZM32.2464 27.1321C31.8317 27.1321 31.4581 27.0582 31.1257 26.9105C30.7962 26.7599 30.5348 26.5384 30.3416 26.2457C30.1513 25.9531 30.0561 25.5923 30.0561 25.1634C30.0561 24.794 30.1243 24.4886 30.2607 24.2472C30.397 24.0057 30.5831 23.8125 30.8189 23.6676C31.0547 23.5227 31.3203 23.4134 31.6158 23.3395C31.9141 23.2628 32.2223 23.2074 32.5405 23.1733C32.924 23.1335 33.2351 23.098 33.4737 23.0668C33.7124 23.0327 33.8857 22.9815 33.9936 22.9134C34.1044 22.8423 34.1598 22.733 34.1598 22.5852V22.5597C34.1598 22.2386 34.0646 21.9901 33.8743 21.8139C33.6839 21.6378 33.4098 21.5497 33.0518 21.5497C32.674 21.5497 32.3743 21.6321 32.1527 21.7969C31.9339 21.9616 31.7862 22.1562 31.7095 22.3807L30.2692 22.1761C30.3828 21.7784 30.5703 21.446 30.8317 21.179C31.093 20.9091 31.4126 20.7074 31.7905 20.5739C32.1683 20.4375 32.5859 20.3693 33.0433 20.3693C33.3587 20.3693 33.6726 20.4062 33.9851 20.4801C34.2976 20.554 34.5831 20.6761 34.8416 20.8466C35.1001 21.0142 35.3075 21.2429 35.4638 21.5327C35.6229 21.8224 35.7024 22.1847 35.7024 22.6193V27H34.2195V26.1009H34.1683C34.0746 26.2827 33.9425 26.4531 33.772 26.6122C33.6044 26.7685 33.3928 26.8949 33.1371 26.9915C32.8842 27.0852 32.5874 27.1321 32.2464 27.1321ZM32.647 25.9986C32.9567 25.9986 33.2251 25.9375 33.4524 25.8153C33.6797 25.6903 33.8544 25.5256 33.9766 25.321C34.1016 25.1165 34.1641 24.8935 34.1641 24.652V23.8807C34.1158 23.9205 34.0334 23.9574 33.9169 23.9915C33.8033 24.0256 33.6754 24.0554 33.5334 24.081C33.3913 24.1065 33.2507 24.1293 33.1115 24.1491C32.9723 24.169 32.8516 24.1861 32.7493 24.2003C32.5192 24.2315 32.3132 24.2827 32.1314 24.3537C31.9496 24.4247 31.8061 24.5241 31.701 24.652C31.5959 24.777 31.5433 24.9389 31.5433 25.1378C31.5433 25.4219 31.647 25.6364 31.8544 25.7812C32.0618 25.9261 32.326 25.9986 32.647 25.9986ZM40.522 20.4545V21.6477H36.7592V20.4545H40.522ZM37.6882 18.8864H39.2308V25.0312C39.2308 25.2386 39.2621 25.3977 39.3246 25.5085C39.3899 25.6165 39.4751 25.6903 39.5803 25.7301C39.6854 25.7699 39.8018 25.7898 39.9297 25.7898C40.0263 25.7898 40.1143 25.7827 40.1939 25.7685C40.2763 25.7543 40.3388 25.7415 40.3814 25.7301L40.6413 26.9361C40.5589 26.9645 40.4411 26.9957 40.2876 27.0298C40.1371 27.0639 39.9524 27.0838 39.7337 27.0895C39.3473 27.1009 38.9993 27.0426 38.6896 26.9148C38.38 26.7841 38.1342 26.5824 37.9524 26.3097C37.7734 26.0369 37.6854 25.696 37.6882 25.2869V18.8864ZM41.8121 27V20.4545H43.3548V27H41.8121ZM42.5877 19.5256C42.3434 19.5256 42.1332 19.4446 41.957 19.2827C41.7809 19.1179 41.6928 18.9205 41.6928 18.6903C41.6928 18.4574 41.7809 18.2599 41.957 18.098C42.1332 17.9332 42.3434 17.8509 42.5877 17.8509C42.8349 17.8509 43.0451 17.9332 43.2184 18.098C43.3945 18.2599 43.4826 18.4574 43.4826 18.6903C43.4826 18.9205 43.3945 19.1179 43.2184 19.2827C43.0451 19.4446 42.8349 19.5256 42.5877 19.5256ZM47.7962 27.1278C47.157 27.1278 46.603 26.9872 46.1342 26.706C45.6655 26.4247 45.3018 26.0312 45.0433 25.5256C44.7876 25.0199 44.6598 24.429 44.6598 23.7528C44.6598 23.0767 44.7876 22.4844 45.0433 21.9759C45.3018 21.4673 45.6655 21.0724 46.1342 20.7912C46.603 20.5099 47.157 20.3693 47.7962 20.3693C48.4354 20.3693 48.9893 20.5099 49.4581 20.7912C49.9268 21.0724 50.2891 21.4673 50.5447 21.9759C50.8033 22.4844 50.9325 23.0767 50.9325 23.7528C50.9325 24.429 50.8033 25.0199 50.5447 25.5256C50.2891 26.0312 49.9268 26.4247 49.4581 26.706C48.9893 26.9872 48.4354 27.1278 47.7962 27.1278ZM47.8047 25.892C48.1513 25.892 48.4411 25.7969 48.674 25.6065C48.907 25.4134 49.0803 25.1548 49.1939 24.831C49.3104 24.5071 49.3686 24.1463 49.3686 23.7486C49.3686 23.348 49.3104 22.9858 49.1939 22.6619C49.0803 22.3352 48.907 22.0753 48.674 21.8821C48.4411 21.6889 48.1513 21.5923 47.8047 21.5923C47.4496 21.5923 47.1541 21.6889 46.9183 21.8821C46.6854 22.0753 46.5107 22.3352 46.3942 22.6619C46.2805 22.9858 46.2237 23.348 46.2237 23.7486C46.2237 24.1463 46.2805 24.5071 46.3942 24.831C46.5107 25.1548 46.6854 25.4134 46.9183 25.6065C47.1541 25.7969 47.4496 25.892 47.8047 25.892ZM53.7844 23.1648V27H52.2418V20.4545H53.7163V21.5668H53.793C53.9435 21.2003 54.1836 20.9091 54.5131 20.6932C54.8455 20.4773 55.256 20.3693 55.7447 20.3693C56.1964 20.3693 56.5898 20.4659 56.9251 20.6591C57.2631 20.8523 57.5245 21.1321 57.7092 21.4986C57.8967 21.8651 57.989 22.3097 57.9862 22.8324V27H56.4435V23.071C56.4435 22.6335 56.3299 22.2912 56.1026 22.044C55.8782 21.7969 55.5671 21.6733 55.1694 21.6733C54.8995 21.6733 54.6594 21.733 54.4492 21.8523C54.2418 21.9687 54.0785 22.1378 53.9592 22.3594C53.8427 22.581 53.7844 22.8494 53.7844 23.1648ZM17.2124 42V33.2727H20.4851C21.1555 33.2727 21.718 33.3892 22.1726 33.6222C22.63 33.8551 22.9751 34.1818 23.2081 34.6023C23.4439 35.0199 23.5618 35.5071 23.5618 36.0639C23.5618 36.6236 23.4425 37.1094 23.2038 37.5213C22.968 37.9304 22.62 38.2472 22.1598 38.4716C21.6996 38.6932 21.1342 38.804 20.4638 38.804H18.1328V37.4915H20.2507C20.6428 37.4915 20.9638 37.4375 21.2138 37.3295C21.4638 37.2187 21.6484 37.0582 21.7678 36.848C21.8899 36.6349 21.951 36.3736 21.951 36.0639C21.951 35.7543 21.8899 35.4901 21.7678 35.2713C21.6456 35.0497 21.4595 34.8821 21.2095 34.7685C20.9595 34.652 20.6371 34.5938 20.2422 34.5938H18.7933V42H17.2124ZM21.7209 38.0455L23.8814 42H22.1172L19.995 38.0455H21.7209ZM26.8324 42.1321C26.4176 42.1321 26.044 42.0582 25.7116 41.9105C25.3821 41.7599 25.1207 41.5384 24.9276 41.2457C24.7372 40.9531 24.642 40.5923 24.642 40.1634C24.642 39.794 24.7102 39.4886 24.8466 39.2472C24.983 39.0057 25.169 38.8125 25.4048 38.6676C25.6406 38.5227 25.9063 38.4134 26.2017 38.3395C26.5 38.2628 26.8082 38.2074 27.1264 38.1733C27.5099 38.1335 27.821 38.098 28.0597 38.0668C28.2983 38.0327 28.4716 37.9815 28.5795 37.9134C28.6903 37.8423 28.7457 37.733 28.7457 37.5852V37.5597C28.7457 37.2386 28.6506 36.9901 28.4602 36.8139C28.2699 36.6378 27.9957 36.5497 27.6378 36.5497C27.2599 36.5497 26.9602 36.6321 26.7386 36.7969C26.5199 36.9616 26.3722 37.1562 26.2955 37.3807L24.8551 37.1761C24.9688 36.7784 25.1563 36.446 25.4176 36.179C25.679 35.9091 25.9986 35.7074 26.3764 35.5739C26.7543 35.4375 27.1719 35.3693 27.6293 35.3693C27.9446 35.3693 28.2585 35.4062 28.571 35.4801C28.8835 35.554 29.169 35.6761 29.4276 35.8466C29.6861 36.0142 29.8935 36.2429 30.0497 36.5327C30.2088 36.8224 30.2884 37.1847 30.2884 37.6193V42H28.8054V41.1009H28.7543C28.6605 41.2827 28.5284 41.4531 28.358 41.6122C28.1903 41.7685 27.9787 41.8949 27.723 41.9915C27.4702 42.0852 27.1733 42.1321 26.8324 42.1321ZM27.233 40.9986C27.5426 40.9986 27.8111 40.9375 28.0384 40.8153C28.2656 40.6903 28.4403 40.5256 28.5625 40.321C28.6875 40.1165 28.75 39.8935 28.75 39.652V38.8807C28.7017 38.9205 28.6193 38.9574 28.5028 38.9915C28.3892 39.0256 28.2614 39.0554 28.1193 39.081C27.9773 39.1065 27.8366 39.1293 27.6974 39.1491C27.5582 39.169 27.4375 39.1861 27.3352 39.2003C27.1051 39.2315 26.8991 39.2827 26.7173 39.3537C26.5355 39.4247 26.392 39.5241 26.2869 39.652C26.1818 39.777 26.1293 39.9389 26.1293 40.1378C26.1293 40.4219 26.233 40.6364 26.4403 40.7812C26.6477 40.9261 26.9119 40.9986 27.233 40.9986ZM35.108 35.4545V36.6477H31.3452V35.4545H35.108ZM32.2741 33.8864H33.8168V40.0312C33.8168 40.2386 33.848 40.3977 33.9105 40.5085C33.9759 40.6165 34.0611 40.6903 34.1662 40.7301C34.2713 40.7699 34.3878 40.7898 34.5156 40.7898C34.6122 40.7898 34.7003 40.7827 34.7798 40.7685C34.8622 40.7543 34.9247 40.7415 34.9673 40.7301L35.2273 41.9361C35.1449 41.9645 35.027 41.9957 34.8736 42.0298C34.723 42.0639 34.5384 42.0838 34.3196 42.0895C33.9332 42.1009 33.5852 42.0426 33.2756 41.9148C32.9659 41.7841 32.7202 41.5824 32.5384 41.3097C32.3594 41.0369 32.2713 40.696 32.2741 40.2869V33.8864ZM39.2255 42.1278C38.5692 42.1278 38.0025 41.9915 37.5252 41.7188C37.0508 41.4432 36.6857 41.054 36.43 40.5511C36.1744 40.0455 36.0465 39.4503 36.0465 38.7656C36.0465 38.0923 36.1744 37.5014 36.43 36.9929C36.6886 36.4815 37.0494 36.0838 37.5124 35.7997C37.9755 35.5128 38.5195 35.3693 39.1445 35.3693C39.5479 35.3693 39.9286 35.4347 40.2866 35.5653C40.6474 35.6932 40.9656 35.892 41.2411 36.1619C41.5195 36.4318 41.7383 36.7756 41.8974 37.1932C42.0565 37.608 42.136 38.1023 42.136 38.6761V39.1491H36.771V38.1094H40.6573C40.6545 37.8139 40.5906 37.5511 40.4656 37.321C40.3406 37.0881 40.1658 36.9048 39.9414 36.7713C39.7198 36.6378 39.4613 36.571 39.1658 36.571C38.8505 36.571 38.5735 36.6477 38.3349 36.8011C38.0962 36.9517 37.9102 37.1506 37.7766 37.3977C37.646 37.642 37.5792 37.9105 37.5763 38.2031V39.1108C37.5763 39.4915 37.646 39.8182 37.7852 40.0909C37.9244 40.3608 38.119 40.5682 38.369 40.7131C38.619 40.8551 38.9116 40.9261 39.2468 40.9261C39.4712 40.9261 39.6744 40.8949 39.8562 40.8324C40.038 40.767 40.1957 40.6719 40.3292 40.5469C40.4627 40.4219 40.5636 40.267 40.6317 40.0824L42.0721 40.2443C41.9812 40.625 41.8079 40.9574 41.5522 41.2415C41.2994 41.5227 40.9755 41.7415 40.5806 41.8977C40.1857 42.0511 39.734 42.1278 39.2255 42.1278Z" fill="black"/>
<path d="M335.51 244.598V243.273H342.474V244.598H339.776V252H338.208V244.598H335.51ZM343.748 252V245.455H345.29V252H343.748ZM344.523 244.526C344.279 244.526 344.069 244.445 343.893 244.283C343.716 244.118 343.628 243.92 343.628 243.69C343.628 243.457 343.716 243.26 343.893 243.098C344.069 242.933 344.279 242.851 344.523 242.851C344.77 242.851 344.981 242.933 345.154 243.098C345.33 243.26 345.418 243.457 345.418 243.69C345.418 243.92 345.33 244.118 345.154 244.283C344.981 244.445 344.77 244.526 344.523 244.526ZM346.877 252V245.455H348.351V246.567H348.428C348.564 246.192 348.79 245.899 349.105 245.689C349.421 245.476 349.797 245.369 350.235 245.369C350.678 245.369 351.051 245.477 351.355 245.693C351.662 245.906 351.878 246.197 352.003 246.567H352.071C352.216 246.203 352.46 245.913 352.804 245.697C353.151 245.479 353.561 245.369 354.036 245.369C354.638 245.369 355.129 245.56 355.51 245.94C355.891 246.321 356.081 246.876 356.081 247.607V252H354.534V247.845C354.534 247.439 354.426 247.142 354.21 246.955C353.994 246.764 353.73 246.669 353.418 246.669C353.046 246.669 352.754 246.786 352.544 247.018C352.337 247.249 352.233 247.548 352.233 247.918V252H350.72V247.781C350.72 247.443 350.618 247.173 350.414 246.972C350.212 246.77 349.948 246.669 349.621 246.669C349.399 246.669 349.198 246.726 349.016 246.839C348.834 246.95 348.689 247.108 348.581 247.312C348.473 247.514 348.419 247.75 348.419 248.02V252H346.877ZM360.544 252.128C359.888 252.128 359.321 251.991 358.844 251.719C358.369 251.443 358.004 251.054 357.748 250.551C357.493 250.045 357.365 249.45 357.365 248.766C357.365 248.092 357.493 247.501 357.748 246.993C358.007 246.482 358.368 246.084 358.831 245.8C359.294 245.513 359.838 245.369 360.463 245.369C360.866 245.369 361.247 245.435 361.605 245.565C361.966 245.693 362.284 245.892 362.559 246.162C362.838 246.432 363.057 246.776 363.216 247.193C363.375 247.608 363.454 248.102 363.454 248.676V249.149H358.089V248.109H361.976C361.973 247.814 361.909 247.551 361.784 247.321C361.659 247.088 361.484 246.905 361.26 246.771C361.038 246.638 360.78 246.571 360.484 246.571C360.169 246.571 359.892 246.648 359.653 246.801C359.415 246.952 359.229 247.151 359.095 247.398C358.964 247.642 358.898 247.911 358.895 248.203V249.111C358.895 249.491 358.964 249.818 359.104 250.091C359.243 250.361 359.437 250.568 359.687 250.713C359.937 250.855 360.23 250.926 360.565 250.926C360.79 250.926 360.993 250.895 361.175 250.832C361.356 250.767 361.514 250.672 361.648 250.547C361.781 250.422 361.882 250.267 361.95 250.082L363.39 250.244C363.3 250.625 363.126 250.957 362.871 251.241C362.618 251.523 362.294 251.741 361.899 251.898C361.504 252.051 361.052 252.128 360.544 252.128Z" fill="black"/>
<path d="M68 0L72.3301 8.25H63.6699L68 0Z" fill="black"/>
<path d="M386 234L377.75 238.33L377.75 229.67L386 234Z" fill="black"/>
</svg>
