<svg xmlns="http://www.w3.org/2000/svg" xmlns:xlink="http://www.w3.org/1999/xlink" xmlns:lucid="lucid" width="821" height="351.33"><g transform="translate(-1880 -2578.9999999940796)" lucid:page-tab-id="0_0"><path d="M2020 2586a6 6 0 0 1 6-6h668a6 6 0 0 1 6 6v337.33a6 6 0 0 1-6 6h-668a6 6 0 0 1-6-6z" stroke="#282c33" stroke-width="2" fill="#fff"/><use xlink:href="#a" transform="matrix(1,0,0,1,2032,2591.9999999999613) translate(281.82716049382714 17.77777777777778)"/><path d="M1938.74 2784.67h-57.48c-.66 0-1.26-.57-1.26-1.27v-3.85c0-13.64 8.94-25.07 22.14-28.28.36-.06.66-.03.96.14 4.44 2.4 9.36 2.4 13.8 0 .3-.16.6-.2.9-.13 13.26 3.2 22.2 14.64 22.2 28.28v3.85c0 .7-.6 1.27-1.26 1.27zm-56.16-2.58h54.84v-2.55c.06-12.27-7.92-22.56-19.74-25.64-2.52 1.25-4.86 1.82-7.68 1.82-2.82 0-5.16-.54-7.68-1.8-11.82 3.07-19.8 13.36-19.74 25.63z" stroke="#fff" stroke-opacity="0" fill="#232f3e"/><path d="M1910 2755.64c-2.75 0-5.1-.6-7.52-1.92-7.46-4.18-10.13-13.66-5.95-21.12 4.18-7.47 13.63-10.13 21.06-5.95 5.04 2.82 7.92 7.74 7.92 13.53 0 5.83-2.94 10.78-8.05 13.54-2.4 1.3-4.74 1.92-7.46 1.92zm0-28.37c-4.95-.13-9.2 2.38-11.58 6.72-3.37 6.28-1.05 14.08 5.2 17.5 4.06 2.2 8.52 2.2 12.58 0 4.27-2.33 6.75-6.5 6.72-11.4-.03-7.13-5.82-12.86-12.9-12.83z" stroke="#fff" stroke-opacity="0" fill="#232f3e"/><use xlink:href="#b" transform="matrix(1,0,0,1,1850,2793.666666666628) translate(49 14.4)"/><path d="M2200 2640.67a6 6 0 0 1 6-6h148a6 6 0 0 1 6 6v108a6 6 0 0 1-6 6h-148a6 6 0 0 1-6-6z" fill="#fff"/><path d="M2225.73 2634.67h19.74m9.86 0h19.74m9.86 0h19.74m9.86 0h19.74m9.86 0h9.87l.94.07.9.22.88.36.8.5.72.6.6.72.5.8.37.87.23.93.07.94v9m0 9v18m0 9v18m0 9v18m0 9v9l-.07.93-.22.92-.35.87-.5.8-.6.7-.72.62-.8.5-.88.35-.9.22-.95.07h-9.87m-9.86 0h-19.74m-9.86 0h-19.74m-9.86 0h-19.74m-9.86 0h-19.74m-9.86 0H2206l-.94-.08-.9-.23-.88-.36-.8-.48-.72-.6-.6-.73-.5-.8-.37-.88-.23-.9-.07-.95v-9m0-9v-18m0-9v-18m0-9v-18m0-9v-9l.07-.94.22-.92.35-.86.5-.8.6-.72.72-.6.8-.5.88-.36.9-.22.95-.07h9.87" stroke="#1071e5" stroke-width="2" fill="none"/><use xlink:href="#c" transform="matrix(1,0,0,1,2212,2646.666666666628) translate(37.22839506172839 26.77777777777778)"/><use xlink:href="#d" transform="matrix(1,0,0,1,2212,2646.666666666628) translate(28.52469135802469 53.44444444444445)"/><use xlink:href="#e" transform="matrix(1,0,0,1,2212,2646.666666666628) translate(16.271604938271608 80.11111111111111)"/><use xlink:href="#f" transform="matrix(1,0,0,1,2212,2646.666666666628) translate(90.22222222222221 80.11111111111111)"/><path d="M2200 2780.67a6 6 0 0 1 6-6h148a6 6 0 0 1 6 6v108a6 6 0 0 1-6 6h-148a6 6 0 0 1-6-6z" fill="#fff"/><path d="M2225.73 2774.67h19.74m9.86 0h19.74m9.86 0h19.74m9.86 0h19.74m9.86 0h9.87l.94.07.9.22.88.36.8.5.72.6.6.72.5.8.37.87.23.93.07.94v9m0 9v18m0 9v18m0 9v18m0 9v9l-.07.93-.22.92-.35.87-.5.8-.6.7-.72.62-.8.5-.88.35-.9.22-.95.07h-9.87m-9.86 0h-19.74m-9.86 0h-19.74m-9.86 0h-19.74m-9.86 0h-19.74m-9.86 0H2206l-.94-.08-.9-.23-.88-.36-.8-.48-.72-.6-.6-.73-.5-.8-.37-.88-.23-.9-.07-.95v-9m0-9v-18m0-9v-18m0-9v-18m0-9v-9l.07-.94.22-.92.35-.86.5-.8.6-.72.72-.6.8-.5.88-.36.9-.22.95-.07h9.87" stroke="#1071e5" stroke-width="2" fill="none"/><use xlink:href="#c" transform="matrix(1,0,0,1,2212,2786.666666666628) translate(37.22839506172839 26.77777777777778)"/><use xlink:href="#d" transform="matrix(1,0,0,1,2212,2786.666666666628) translate(28.52469135802469 53.44444444444445)"/><use xlink:href="#e" transform="matrix(1,0,0,1,2212,2786.666666666628) translate(16.271604938271608 80.11111111111111)"/><use xlink:href="#g" transform="matrix(1,0,0,1,2212,2786.666666666628) translate(90.22222222222221 80.11111111111111)"/><path d="M2012.13 2754.67h-117.66" stroke="#3a414a" fill="none"/><path d="M2018.02 2754.67l-12.9 7.63v-15.27z" stroke="#3a414a" fill="#3a414a"/><path d="M1894.48 2755.14h-1.2l1.2-.82z" stroke="#3a414a" stroke-width=".05" fill="#3a414a"/><path d="M2030.47 2755.57h8.64m8.65 0h17.28m8.64 0h17.28m8.64 0h8.64l.93-.08.92-.23.86-.36.8-.48.72-.6.6-.73.5-.8.36-.88.22-.9.08-.95v-8.15m0-8.15v-16.3m0-8.15v-8.15l.07-.94.23-.92.36-.86.48-.8.6-.72.73-.6.8-.5.88-.36.92-.22.94-.07h11.63m11.62 0h23.25m11.63 0H2190M2030.5 2755.57h-1.03" stroke="#1071e5" stroke-width="2" fill="none"/><path d="M2197.04 2694.67l-12.92 7.63v-15.27z" stroke="#1071e5" stroke-width="2" fill="#1071e5"/><path d="M2027.12 2755.57h8.9m8.88 0h17.78m8.9 0h17.76m8.9 0h8.88l.94.07.92.22.86.36.8.5.72.6.62.72.5.8.35.87.22.93.07.94v11.18m0 11.18v22.37m0 11.18v11.2l.08.93.22.92.36.87.5.8.6.7.7.62.82.5.87.35.9.22.95.07h11.82m11.8 0h23.64m11.8 0h11.83M2027.15 2755.57h-1.03" stroke="#1071e5" stroke-width="2" fill="none"/><path d="M2197.04 2834.67l-12.92 7.63v-15.27z" stroke="#1071e5" stroke-width="2" fill="#1071e5"/><path d="M2420 2640.67a6 6 0 0 1 6-6h148a6 6 0 0 1 6 6v108a6 6 0 0 1-6 6h-148a6 6 0 0 1-6-6z" stroke="#000" stroke-width="2" fill="#fff"/><use xlink:href="#h" transform="matrix(1,0,0,1,2432,2646.666666666628) translate(21.827160493827158 38.77777777777778)"/><use xlink:href="#i" transform="matrix(1,0,0,1,2432,2646.666666666628) translate(32.19753086419753 65.44444444444446)"/><use xlink:href="#j" transform="matrix(1,0,0,1,2432,2646.666666666628) translate(88.98765432098764 65.44444444444446)"/><path d="M2420 2780.67a6 6 0 0 1 6-6h148a6 6 0 0 1 6 6v108a6 6 0 0 1-6 6h-148a6 6 0 0 1-6-6z" stroke="#000" stroke-width="2" fill="#fff"/><g><use xlink:href="#h" transform="matrix(1,0,0,1,2432,2786.666666666628) translate(21.827160493827158 38.77777777777778)"/><use xlink:href="#i" transform="matrix(1,0,0,1,2432,2786.666666666628) translate(32.19753086419753 65.44444444444446)"/><use xlink:href="#k" transform="matrix(1,0,0,1,2432,2786.666666666628) translate(88.98765432098764 65.44444444444446)"/></g><path d="M2361.5 2694.67h50.63" stroke="#000" fill="none"/><path d="M2361.5 2695.14h-.5v-.95h.5z" stroke="#000" stroke-width=".05"/><path d="M2418.02 2694.67l-12.9 7.63v-15.27z" stroke="#000"/><path d="M2361.5 2834.67h50.63" stroke="#000" fill="none"/><path d="M2361.5 2835.14h-.5v-.95h.5z" stroke="#000" stroke-width=".05"/><path d="M2418.02 2834.67l-12.9 7.63v-15.27z" stroke="#000"/><defs><path fill="#3a414a" d="M266 0h-40l-56-210L115 0H75L2-248h35L96-30l15-64 43-154h32l59 218 59-218h35" id="l"/><path fill="#3a414a" d="M24-231v-30h32v30H24zM24 0v-190h32V0H24" id="m"/><path fill="#3a414a" d="M59-47c-2 24 18 29 38 22v24C64 9 27 4 27-40v-127H5v-23h24l9-43h21v43h35v23H59v120" id="n"/><path fill="#3a414a" d="M106-169C34-169 62-67 57 0H25v-261h32l-1 103c12-21 28-36 61-36 89 0 53 116 60 194h-32v-121c2-32-8-49-39-48" id="o"/><path fill="#3a414a" d="M85-194c31 0 48 13 60 33l-1-100h32l1 261h-30c-2-10 0-23-3-31C134-8 116 4 85 4 32 4 16-35 15-94c0-66 23-100 70-100zm9 24c-40 0-46 34-46 75 0 40 6 74 45 74 42 0 51-32 51-76 0-42-9-74-50-73" id="p"/><path fill="#3a414a" d="M114-163C36-179 61-72 57 0H25l-1-190h30c1 12-1 29 2 39 6-27 23-49 58-41v29" id="q"/><path fill="#3a414a" d="M141-36C126-15 110 5 73 4 37 3 15-17 15-53c-1-64 63-63 125-63 3-35-9-54-41-54-24 1-41 7-42 31l-33-3c5-37 33-52 76-52 45 0 72 20 72 64v82c-1 20 7 32 28 27v20c-31 9-61-2-59-35zM48-53c0 20 12 33 32 33 41-3 63-29 60-74-43 2-92-5-92 41" id="r"/><path fill="#3a414a" d="M206 0h-36l-40-164L89 0H53L-1-190h32L70-26l43-164h34l41 164 42-164h31" id="s"/><g id="a"><use transform="matrix(0.06172839506172839,0,0,0.06172839506172839,0,0)" xlink:href="#l"/><use transform="matrix(0.06172839506172839,0,0,0.06172839506172839,20.925925925925924,0)" xlink:href="#m"/><use transform="matrix(0.06172839506172839,0,0,0.06172839506172839,25.80246913580247,0)" xlink:href="#n"/><use transform="matrix(0.06172839506172839,0,0,0.06172839506172839,31.975308641975307,0)" xlink:href="#o"/><use transform="matrix(0.06172839506172839,0,0,0.06172839506172839,44.32098765432099,0)" xlink:href="#p"/><use transform="matrix(0.06172839506172839,0,0,0.06172839506172839,56.666666666666664,0)" xlink:href="#q"/><use transform="matrix(0.06172839506172839,0,0,0.06172839506172839,64.01234567901234,0)" xlink:href="#r"/><use transform="matrix(0.06172839506172839,0,0,0.06172839506172839,76.35802469135803,0)" xlink:href="#s"/></g><path d="M30 0v-248h33v221h125V0H30" id="t"/><path d="M30-248c87 1 191-15 191 75 0 78-77 80-158 76V0H30v-248zm33 125c57 0 124 11 124-50 0-59-68-47-124-48v98" id="u"/><g id="b"><use transform="matrix(0.05,0,0,0.05,0,0)" xlink:href="#t"/><use transform="matrix(0.05,0,0,0.05,10,0)" xlink:href="#u"/></g><path fill="#3a414a" d="M233-177c-1 41-23 64-60 70L243 0h-38l-65-103H63V0H30v-248c88 3 205-21 203 71zM63-129c60-2 137 13 137-47 0-61-80-42-137-45v92" id="v"/><path fill="#3a414a" d="M100-194c63 0 86 42 84 106H49c0 40 14 67 53 68 26 1 43-12 49-29l28 8c-11 28-37 45-77 45C44 4 14-33 15-96c1-61 26-98 85-98zm52 81c6-60-76-77-97-28-3 7-6 17-6 28h103" id="w"/><path fill="#3a414a" d="M96-169c-40 0-48 33-48 73s9 75 48 75c24 0 41-14 43-38l32 2c-6 37-31 61-74 61-59 0-76-41-82-99-10-93 101-131 147-64 4 7 5 14 7 22l-32 3c-4-21-16-35-41-35" id="x"/><path fill="#3a414a" d="M24 0v-261h32V0H24" id="y"/><g id="c"><use transform="matrix(0.06172839506172839,0,0,0.06172839506172839,0,0)" xlink:href="#v"/><use transform="matrix(0.06172839506172839,0,0,0.06172839506172839,15.987654320987653,0)" xlink:href="#w"/><use transform="matrix(0.06172839506172839,0,0,0.06172839506172839,28.333333333333332,0)" xlink:href="#x"/><use transform="matrix(0.06172839506172839,0,0,0.06172839506172839,39.44444444444444,0)" xlink:href="#r"/><use transform="matrix(0.06172839506172839,0,0,0.06172839506172839,51.79012345679012,0)" xlink:href="#y"/><use transform="matrix(0.06172839506172839,0,0,0.06172839506172839,56.666666666666664,0)" xlink:href="#y"/></g><path fill="#3a414a" d="M30 0v-248h33v221h125V0H30" id="z"/><path fill="#3a414a" d="M117-194c89-4 53 116 60 194h-32v-121c0-31-8-49-39-48C34-167 62-67 57 0H25l-1-190h30c1 10-1 24 2 32 11-22 29-35 61-36" id="A"/><path fill="#3a414a" d="M177-190C167-65 218 103 67 71c-23-6-38-20-44-43l32-5c15 47 100 32 89-28v-30C133-14 115 1 83 1 29 1 15-40 15-95c0-56 16-97 71-98 29-1 48 16 59 35 1-10 0-23 2-32h30zM94-22c36 0 50-32 50-73 0-42-14-75-50-75-39 0-46 34-46 75s6 73 46 73" id="B"/><g id="d"><use transform="matrix(0.06172839506172839,0,0,0.06172839506172839,0,0)" xlink:href="#z"/><use transform="matrix(0.06172839506172839,0,0,0.06172839506172839,12.345679012345679,0)" xlink:href="#w"/><use transform="matrix(0.06172839506172839,0,0,0.06172839506172839,24.691358024691358,0)" xlink:href="#A"/><use transform="matrix(0.06172839506172839,0,0,0.06172839506172839,37.03703703703704,0)" xlink:href="#p"/><use transform="matrix(0.06172839506172839,0,0,0.06172839506172839,49.382716049382715,0)" xlink:href="#m"/><use transform="matrix(0.06172839506172839,0,0,0.06172839506172839,54.25925925925926,0)" xlink:href="#A"/><use transform="matrix(0.06172839506172839,0,0,0.06172839506172839,66.60493827160494,0)" xlink:href="#B"/></g><path fill="#3a414a" d="M240 0l2-218c-23 76-54 145-80 218h-23L58-218 59 0H30v-248h44l77 211c21-75 51-140 76-211h43V0h-30" id="C"/><path fill="#3a414a" d="M143 0L79-87 56-68V0H24v-261h32v163l83-92h37l-77 82L181 0h-38" id="D"/><g id="e"><use transform="matrix(0.06172839506172839,0,0,0.06172839506172839,0,0)" xlink:href="#C"/><use transform="matrix(0.06172839506172839,0,0,0.06172839506172839,18.456790123456788,0)" xlink:href="#r"/><use transform="matrix(0.06172839506172839,0,0,0.06172839506172839,30.80246913580247,0)" xlink:href="#q"/><use transform="matrix(0.06172839506172839,0,0,0.06172839506172839,38.148148148148145,0)" xlink:href="#D"/><use transform="matrix(0.06172839506172839,0,0,0.06172839506172839,49.25925925925925,0)" xlink:href="#w"/><use transform="matrix(0.06172839506172839,0,0,0.06172839506172839,61.60493827160493,0)" xlink:href="#n"/></g><path fill="#3a414a" d="M87 75C49 33 22-17 22-94c0-76 28-126 65-167h31c-38 41-64 92-64 168S80 34 118 75H87" id="E"/><path fill="#3a414a" d="M205 0l-28-72H64L36 0H1l101-248h38L239 0h-34zm-38-99l-47-123c-12 45-31 82-46 123h93" id="F"/><path fill="#3a414a" d="M33-261c38 41 65 92 65 168S71 34 33 75H2C39 34 66-17 66-93S39-220 2-261h31" id="G"/><g id="f"><use transform="matrix(0.06172839506172839,0,0,0.06172839506172839,0,0)" xlink:href="#E"/><use transform="matrix(0.06172839506172839,0,0,0.06172839506172839,7.345679012345679,0)" xlink:href="#F"/><use transform="matrix(0.06172839506172839,0,0,0.06172839506172839,22.160493827160494,0)" xlink:href="#G"/></g><path fill="#3a414a" d="M160-131c35 5 61 23 61 61C221 17 115-2 30 0v-248c76 3 177-17 177 60 0 33-19 50-47 57zm-97-11c50-1 110 9 110-42 0-47-63-36-110-37v79zm0 115c55-2 124 14 124-45 0-56-70-42-124-44v89" id="H"/><g id="g"><use transform="matrix(0.06172839506172839,0,0,0.06172839506172839,0,0)" xlink:href="#E"/><use transform="matrix(0.06172839506172839,0,0,0.06172839506172839,7.345679012345679,0)" xlink:href="#H"/><use transform="matrix(0.06172839506172839,0,0,0.06172839506172839,22.160493827160494,0)" xlink:href="#G"/></g><g id="h"><use transform="matrix(0.06172839506172839,0,0,0.06172839506172839,0,0)" xlink:href="#l"/><use transform="matrix(0.06172839506172839,0,0,0.06172839506172839,20.925925925925924,0)" xlink:href="#m"/><use transform="matrix(0.06172839506172839,0,0,0.06172839506172839,25.80246913580247,0)" xlink:href="#n"/><use transform="matrix(0.06172839506172839,0,0,0.06172839506172839,31.975308641975307,0)" xlink:href="#o"/><use transform="matrix(0.06172839506172839,0,0,0.06172839506172839,44.32098765432099,0)" xlink:href="#p"/><use transform="matrix(0.06172839506172839,0,0,0.06172839506172839,56.666666666666664,0)" xlink:href="#q"/><use transform="matrix(0.06172839506172839,0,0,0.06172839506172839,64.01234567901234,0)" xlink:href="#r"/><use transform="matrix(0.06172839506172839,0,0,0.06172839506172839,76.35802469135803,0)" xlink:href="#s"/></g><g id="i"><use transform="matrix(0.06172839506172839,0,0,0.06172839506172839,0,0)" xlink:href="#H"/><use transform="matrix(0.06172839506172839,0,0,0.06172839506172839,14.814814814814813,0)" xlink:href="#r"/><use transform="matrix(0.06172839506172839,0,0,0.06172839506172839,27.160493827160494,0)" xlink:href="#A"/><use transform="matrix(0.06172839506172839,0,0,0.06172839506172839,39.50617283950617,0)" xlink:href="#D"/></g><use transform="matrix(0.06172839506172839,0,0,0.06172839506172839,0,0)" xlink:href="#F" id="j"/><use transform="matrix(0.06172839506172839,0,0,0.06172839506172839,0,0)" xlink:href="#H" id="k"/></defs></g></svg>