<svg xmlns="http://www.w3.org/2000/svg" xmlns:xlink="http://www.w3.org/1999/xlink" xmlns:lucid="lucid" width="582" height="761"><g transform="translate(-138.99999996362 -2060)" lucid:page-tab-id="0_0"><path d="M0 0h2000v3000H0z" fill="#fff"/><path d="M340 2286a6 6 0 0 1 6-6h148a6 6 0 0 1 6 6v108a6 6 0 0 1-6 6H346a6 6 0 0 1-6-6z" stroke="#282c33" stroke-width="2" fill="#fff"/><use xlink:href="#a" transform="matrix(1,0,0,1,352,2292) translate(45.808641975308646 53.77777777777778)"/><path d="M140 2486a6 6 0 0 1 6-6h148a6 6 0 0 1 6 6v108a6 6 0 0 1-6 6H146a6 6 0 0 1-6-6z" stroke="#282c33" stroke-width="2" fill="#fff"/><use xlink:href="#b" transform="matrix(1,0,0,1,152,2492) translate(32.19753086419753 53.77777777777778)"/><use xlink:href="#c" transform="matrix(1,0,0,1,152,2492) translate(88.98765432098764 53.77777777777778)"/><path d="M340 2706a6 6 0 0 1 6-6h148a6 6 0 0 1 6 6v108a6 6 0 0 1-6 6H346a6 6 0 0 1-6-6z" stroke="#282c33" stroke-width="2" fill="#fff"/><use xlink:href="#d" transform="matrix(1,0,0,1,352,2712) translate(31.02469135802469 53.77777777777778)"/><path d="M560 2486a6 6 0 0 1 6-6h148a6 6 0 0 1 6 6v108a6 6 0 0 1-6 6H566a6 6 0 0 1-6-6z" stroke="#282c33" stroke-width="2" fill="#fff"/><use xlink:href="#b" transform="matrix(1,0,0,1,572,2492) translate(32.19753086419753 53.77777777777778)"/><use xlink:href="#e" transform="matrix(1,0,0,1,572,2492) translate(88.98765432098764 53.77777777777778)"/><path d="M265 2440.47h-38.98l-.88.07-.85.2-.8.34-.75.45-.66.56-.57.65-.45.74-.33.8-.2.84-.08.88v32.48h-.94v-32.52l.07-1 .24-.98.4-.94.52-.87.66-.78.77-.66.86-.53.94-.4 1-.23.98-.07H265zm125.12-6.45l-.08 1-.24.98-.38.94-.54.87-.66.78-.77.66-.87.53-.93.4-1 .23-1 .07h-39v-.94h38.98l.88-.07.85-.2.8-.34.74-.45.65-.56.56-.65.47-.74.33-.8.2-.84.07-.88v-26.1h.95z" stroke="#3a414a" stroke-width=".05" fill="#3a414a"/><path d="M397.28 2414.9H382l7.64-12.92z" fill="#3a414a"/><path d="M398.1 2415.37H381.2l8.46-14.32zm-15.26-.95h13.6l-6.8-11.5z" stroke="#3a414a" stroke-width=".05" fill="#3a414a"/><path d="M220.47 2479h-.94v-.5h.94z" fill="#3a414a"/><path stroke="#3a414a" stroke-width=".05" fill="#3a414a"/><use xlink:href="#f" transform="matrix(1,0,0,1,264.99510191293973,2429.3333435885615) translate(0 14.222222222222223)"/><path d="M634.02 2439.53l1 .07.98.24.94.4.87.52.78.66.66.77.53.86.4.94.23 1 .08.98v32.52h-.96v-32.48l-.06-.88-.2-.85-.34-.8-.45-.75-.56-.66-.65-.57-.74-.45-.8-.33-.84-.2-.88-.08H584.3v-.94zm-184.52-4.67l.2.85.34.8.45.75.55.66.66.57.75.45.8.33.84.2.88.08h49.67v.94h-49.7l-1-.07-1-.24-.93-.4-.87-.52-.77-.66-.66-.77-.53-.86-.4-.94-.24-1-.08-.98v-26.15h.95v26.1z" stroke="#3a414a" stroke-width=".05" fill="#3a414a"/><path d="M640.48 2479h-.96v-.5h.96z" fill="#3a414a"/><path stroke="#3a414a" stroke-width=".05" fill="#3a414a"/><path d="M456.6 2414.9H441.3l7.64-12.92z" fill="#3a414a"/><path d="M457.43 2415.37H440.5l8.46-14.32zm-15.28-.95h13.6l-6.8-11.5z" stroke="#3a414a" stroke-width=".05" fill="#3a414a"/><use xlink:href="#f" transform="matrix(1,0,0,1,504.6518856699038,2429.333323550194) translate(0 14.222222222222223)"/><path d="M220.47 2753.98l.07.88.2.85.34.8.45.75.56.66.65.57.74.45.8.33.84.2.88.08h4.67v.94h-4.72l-1-.07-.98-.24-.94-.4-.87-.52-.78-.66-.66-.77-.53-.86-.4-.94-.23-1-.07-.98v-3.35h.94zm24.28 6.5h-9.38v-.95h9.38zm14.06 0h-9.36v-.95h9.37zm14.07 0h-9.37v-.95h9.38zm14.07 0h-9.38v-.95h9.38zm14.06 0h-9.38v-.95H301zm14.06 0h-9.37v-.95h9.36zm14.06 0h-9.37v-.95h9.38zm9.38 0h-4.7v-.95h4.7zm-118.03-31.15h-.94v-9.43h.94zm0-14.3h-.94v-9.74h.94zm0-14.6h-.94v-9.75h.94zm0-14.62h-.94v-9.73h.94zm0-14.6h-.94v-9.75h.94zm0-14.62h-.94v-9.74h.94zm0-14.6h-.94v-9.75h.94zm0-14.62h-.94v-9.75h.94zm0-14.62h-.94v-4.87h.94z" stroke="#3a414a" stroke-width=".05" fill="#3a414a"/><path d="M227.64 2614.9h-15.28l7.64-12.92z" fill="#3a414a"/><path d="M228.47 2615.37h-16.94l8.47-14.32zm-15.27-.95h13.6l-6.8-11.5z" stroke="#3a414a" stroke-width=".05" fill="#3a414a"/><path d="M339 2760.47h-.5v-.94h.5z" fill="#3a414a"/><path stroke="#3a414a" stroke-width=".05" fill="#3a414a"/><use xlink:href="#g" transform="matrix(1,0,0,1,193.85185185185185,2729.3333333333335) translate(0 14.222222222222223)"/><path d="M609.46 2760.47h-9.8v-.94h9.8zm-14.72 0h-9.8v-.94h9.8zm-14.72 0h-9.82v-.94h9.82zm-14.72 0h-9.82v-.94h9.82zm-14.73 0h-9.8v-.94h9.8zm-14.72 0h-9.8v-.94h9.8zm-14.72 0h-9.8v-.94h9.8zm-14.72 0h-4.9v-.94h4.9zm134.08-21.14h-.96v-4.8h.96zm0-9.68h-.96v-9.75h.96zm0-14.62h-.96v-9.74h.96zm0-14.6h-.96v-9.75h.96zm0-14.62h-.96v-9.73h.96zm0-14.6h-.96v-9.75h.96zm0-14.62h-.96v-9.74h.96zm0-14.6h-.96v-9.75h.96zm0-14.62h-.96v-9.75h.96zm0-14.62h-.96v-4.87h.96z" stroke="#3a414a" stroke-width=".05" fill="#3a414a"/><path d="M647.64 2614.9h-15.28l7.64-12.92z" fill="#3a414a"/><path d="M648.47 2615.37h-16.94l8.47-14.32zm-15.27-.95h13.6l-6.8-11.5z" stroke="#3a414a" stroke-width=".05" fill="#3a414a"/><path d="M501.5 2760.47h-.5v-.94h.5z" fill="#3a414a"/><path stroke="#3a414a" stroke-width=".05" fill="#3a414a"/><use xlink:href="#g" transform="matrix(1,0,0,1,613.8518518518518,2739.3333333333335) translate(0 14.222222222222223)"/><path d="M458.74 2120h-57.48c-.66 0-1.26-.57-1.26-1.27v-3.84c0-13.65 8.94-25.1 22.14-28.3.36-.06.66-.03.96.14 4.44 2.4 9.36 2.4 13.8 0 .3-.17.6-.2.9-.13 13.26 3.22 22.2 14.65 22.2 28.3v3.83c0 .7-.6 1.27-1.26 1.27zm-56.16-2.57h54.84v-2.54c.06-12.28-7.92-22.58-19.74-25.65-2.52 1.23-4.86 1.8-7.68 1.8-2.82 0-5.16-.53-7.68-1.8-11.82 3.07-19.8 13.37-19.74 25.64z" stroke="#fff" stroke-opacity="0" fill="#232f3e"/><path d="M430 2090.97c-2.75 0-5.1-.58-7.52-1.92-7.47-4.18-10.13-13.66-5.95-21.12 4.18-7.46 13.63-10.13 21.06-5.95 5.04 2.82 7.92 7.75 7.92 13.54 0 5.82-2.94 10.78-8.05 13.53-2.42 1.3-4.74 1.92-7.46 1.92zm0-28.37c-4.95-.12-9.2 2.4-11.58 6.72-3.37 6.3-1.05 14.1 5.2 17.5 4.06 2.2 8.52 2.2 12.58 0 4.28-2.32 6.75-6.5 6.72-11.4-.03-7.12-5.82-12.85-12.9-12.82z" stroke="#fff" stroke-opacity="0" fill="#232f3e"/><use xlink:href="#h" transform="matrix(1,0,0,1,370,2129) translate(49 14.4)"/><path d="M430.48 2278.5h-.96v-48.33h.96zm0-69.67h-.96v-41.96h.96z" stroke="#3a414a" stroke-width=".05" fill="#3a414a"/><path d="M437.64 2173.9h-15.28l7.64-12.92z" fill="#3a414a"/><path d="M438.47 2174.37h-16.94l8.47-14.32zm-15.27-.95h13.6l-6.8-11.5z" stroke="#3a414a" stroke-width=".05" fill="#3a414a"/><path d="M430.48 2279h-.96v-.5h.96z" fill="#3a414a"/><path stroke="#3a414a" stroke-width=".05" fill="#3a414a"/><g><use xlink:href="#f" transform="matrix(1,0,0,1,390.17283950617286,2208.8333549549548) translate(0 14.222222222222223)"/></g><defs><path fill="#3a414a" d="M30-248c87 1 191-15 191 75 0 78-77 80-158 76V0H30v-248zm33 125c57 0 124 11 124-50 0-59-68-47-124-48v98" id="i"/><path fill="#3a414a" d="M100-194c62-1 85 37 85 99 1 63-27 99-86 99S16-35 15-95c0-66 28-99 85-99zM99-20c44 1 53-31 53-75 0-43-8-75-51-75s-53 32-53 75 10 74 51 75" id="j"/><path fill="#3a414a" d="M24 0v-261h32V0H24" id="k"/><g id="a"><use transform="matrix(0.06172839506172839,0,0,0.06172839506172839,0,0)" xlink:href="#i"/><use transform="matrix(0.06172839506172839,0,0,0.06172839506172839,14.814814814814813,0)" xlink:href="#j"/><use transform="matrix(0.06172839506172839,0,0,0.06172839506172839,27.160493827160494,0)" xlink:href="#j"/><use transform="matrix(0.06172839506172839,0,0,0.06172839506172839,39.50617283950617,0)" xlink:href="#k"/></g><path fill="#3a414a" d="M160-131c35 5 61 23 61 61C221 17 115-2 30 0v-248c76 3 177-17 177 60 0 33-19 50-47 57zm-97-11c50-1 110 9 110-42 0-47-63-36-110-37v79zm0 115c55-2 124 14 124-45 0-56-70-42-124-44v89" id="l"/><path fill="#3a414a" d="M141-36C126-15 110 5 73 4 37 3 15-17 15-53c-1-64 63-63 125-63 3-35-9-54-41-54-24 1-41 7-42 31l-33-3c5-37 33-52 76-52 45 0 72 20 72 64v82c-1 20 7 32 28 27v20c-31 9-61-2-59-35zM48-53c0 20 12 33 32 33 41-3 63-29 60-74-43 2-92-5-92 41" id="m"/><path fill="#3a414a" d="M117-194c89-4 53 116 60 194h-32v-121c0-31-8-49-39-48C34-167 62-67 57 0H25l-1-190h30c1 10-1 24 2 32 11-22 29-35 61-36" id="n"/><path fill="#3a414a" d="M143 0L79-87 56-68V0H24v-261h32v163l83-92h37l-77 82L181 0h-38" id="o"/><g id="b"><use transform="matrix(0.06172839506172839,0,0,0.06172839506172839,0,0)" xlink:href="#l"/><use transform="matrix(0.06172839506172839,0,0,0.06172839506172839,14.814814814814813,0)" xlink:href="#m"/><use transform="matrix(0.06172839506172839,0,0,0.06172839506172839,27.160493827160494,0)" xlink:href="#n"/><use transform="matrix(0.06172839506172839,0,0,0.06172839506172839,39.50617283950617,0)" xlink:href="#o"/></g><path fill="#3a414a" d="M205 0l-28-72H64L36 0H1l101-248h38L239 0h-34zm-38-99l-47-123c-12 45-31 82-46 123h93" id="p"/><use transform="matrix(0.06172839506172839,0,0,0.06172839506172839,0,0)" xlink:href="#p" id="c"/><path fill="#3a414a" d="M185-189c-5-48-123-54-124 2 14 75 158 14 163 119 3 78-121 87-175 55-17-10-28-26-33-46l33-7c5 56 141 63 141-1 0-78-155-14-162-118-5-82 145-84 179-34 5 7 8 16 11 25" id="q"/><path fill="#3a414a" d="M84 4C-5 8 30-112 23-190h32v120c0 31 7 50 39 49 72-2 45-101 50-169h31l1 190h-30c-1-10 1-25-2-33-11 22-28 36-60 37" id="r"/><path fill="#3a414a" d="M24-231v-30h32v30H24zM24 0v-190h32V0H24" id="s"/><path fill="#3a414a" d="M100-194c63 0 86 42 84 106H49c0 40 14 67 53 68 26 1 43-12 49-29l28 8c-11 28-37 45-77 45C44 4 14-33 15-96c1-61 26-98 85-98zm52 81c6-60-76-77-97-28-3 7-6 17-6 28h103" id="t"/><path fill="#3a414a" d="M85-194c31 0 48 13 60 33l-1-100h32l1 261h-30c-2-10 0-23-3-31C134-8 116 4 85 4 32 4 16-35 15-94c0-66 23-100 70-100zm9 24c-40 0-46 34-46 75 0 40 6 74 45 74 42 0 51-32 51-76 0-42-9-74-50-73" id="u"/><g id="d"><use transform="matrix(0.06172839506172839,0,0,0.06172839506172839,0,0)" xlink:href="#q"/><use transform="matrix(0.06172839506172839,0,0,0.06172839506172839,14.814814814814813,0)" xlink:href="#r"/><use transform="matrix(0.06172839506172839,0,0,0.06172839506172839,27.160493827160494,0)" xlink:href="#s"/><use transform="matrix(0.06172839506172839,0,0,0.06172839506172839,32.03703703703704,0)" xlink:href="#k"/><use transform="matrix(0.06172839506172839,0,0,0.06172839506172839,36.91358024691358,0)" xlink:href="#t"/><use transform="matrix(0.06172839506172839,0,0,0.06172839506172839,49.25925925925926,0)" xlink:href="#n"/><use transform="matrix(0.06172839506172839,0,0,0.06172839506172839,61.60493827160494,0)" xlink:href="#u"/></g><use transform="matrix(0.06172839506172839,0,0,0.06172839506172839,0,0)" xlink:href="#l" id="e"/><path fill="#333" d="M275 0h-61l-44-196L126 0H64L0-248h53L97-49l45-199h58l43 199 44-199h52" id="v"/><path fill="#333" d="M25-224v-37h50v37H25zM25 0v-190h50V0H25" id="w"/><path fill="#333" d="M115-3C79 11 28 4 28-45v-112H4v-33h27l15-45h31v45h36v33H77v99c-1 23 16 31 38 25v30" id="x"/><path fill="#333" d="M114-157C55-157 80-60 75 0H25v-261h50l-1 109c12-26 28-41 61-42 86-1 58 113 63 194h-50c-7-57 23-157-34-157" id="y"/><path fill="#333" d="M88-194c31-1 46 15 58 34l-1-101h50l1 261h-48c-2-10 0-23-3-31C134-8 116 4 84 4 32 4 16-41 15-95c0-56 19-97 73-99zm17 164c33 0 40-30 41-66 1-37-9-64-41-64s-38 30-39 65c0 43 13 65 39 65" id="z"/><path fill="#333" d="M135-150c-39-12-60 13-60 57V0H25l-1-190h47c2 13-1 29 3 40 6-28 27-53 61-41v41" id="A"/><path fill="#333" d="M133-34C117-15 103 5 69 4 32 3 11-16 11-54c-1-60 55-63 116-61 1-26-3-47-28-47-18 1-26 9-28 27l-52-2c7-38 36-58 82-57s74 22 75 68l1 82c-1 14 12 18 25 15v27c-30 8-71 5-69-32zm-48 3c29 0 43-24 42-57-32 0-66-3-65 30 0 17 8 27 23 27" id="B"/><path fill="#333" d="M231 0h-52l-39-155L100 0H48L-1-190h46L77-45c9-52 24-97 36-145h53l37 145 32-145h46" id="C"/><g id="f"><use transform="matrix(0.04938271604938272,0,0,0.04938271604938272,0,0)" xlink:href="#v"/><use transform="matrix(0.04938271604938272,0,0,0.04938271604938272,16.59259259259259,0)" xlink:href="#w"/><use transform="matrix(0.04938271604938272,0,0,0.04938271604938272,21.530864197530864,0)" xlink:href="#x"/><use transform="matrix(0.04938271604938272,0,0,0.04938271604938272,27.40740740740741,0)" xlink:href="#y"/><use transform="matrix(0.04938271604938272,0,0,0.04938271604938272,38.22222222222222,0)" xlink:href="#z"/><use transform="matrix(0.04938271604938272,0,0,0.04938271604938272,49.03703703703704,0)" xlink:href="#A"/><use transform="matrix(0.04938271604938272,0,0,0.04938271604938272,55.95061728395062,0)" xlink:href="#B"/><use transform="matrix(0.04938271604938272,0,0,0.04938271604938272,65.82716049382717,0)" xlink:href="#C"/></g><path fill="#333" d="M240-174c0 40-23 61-54 70L253 0h-59l-57-94H76V0H24v-248c93 4 217-23 216 74zM76-134c48-2 112 12 112-38 0-48-66-32-112-35v73" id="D"/><path fill="#333" d="M185-48c-13 30-37 53-82 52C43 2 14-33 14-96s30-98 90-98c62 0 83 45 84 108H66c0 31 8 55 39 56 18 0 30-7 34-22zm-45-69c5-46-57-63-70-21-2 6-4 13-4 21h74" id="E"/><path fill="#333" d="M190-63c-7 42-38 67-86 67-59 0-84-38-90-98-12-110 154-137 174-36l-49 2c-2-19-15-32-35-32-30 0-35 28-38 64-6 74 65 87 74 30" id="F"/><path fill="#333" d="M25 0v-261h50V0H25" id="G"/><g id="g"><use transform="matrix(0.04938271604938272,0,0,0.04938271604938272,0,0)" xlink:href="#D"/><use transform="matrix(0.04938271604938272,0,0,0.04938271604938272,12.790123456790125,0)" xlink:href="#E"/><use transform="matrix(0.04938271604938272,0,0,0.04938271604938272,22.66666666666667,0)" xlink:href="#F"/><use transform="matrix(0.04938271604938272,0,0,0.04938271604938272,32.543209876543216,0)" xlink:href="#B"/><use transform="matrix(0.04938271604938272,0,0,0.04938271604938272,42.41975308641976,0)" xlink:href="#G"/><use transform="matrix(0.04938271604938272,0,0,0.04938271604938272,47.35802469135803,0)" xlink:href="#G"/></g><path d="M30 0v-248h33v221h125V0H30" id="H"/><path d="M30-248c87 1 191-15 191 75 0 78-77 80-158 76V0H30v-248zm33 125c57 0 124 11 124-50 0-59-68-47-124-48v98" id="I"/><g id="h"><use transform="matrix(0.05,0,0,0.05,0,0)" xlink:href="#H"/><use transform="matrix(0.05,0,0,0.05,10,0)" xlink:href="#I"/></g></defs></g></svg>